<?xml version="1.0" encoding="utf-8"?>
<!-- Generator: Adobe Illustrator 24.1.2, SVG Export Plug-In . SVG Version: 6.00 Build 0)  -->
<svg version="1.1" id="Слой_1" xmlns="http://www.w3.org/2000/svg" xmlns:xlink="http://www.w3.org/1999/xlink" x="0px" y="0px"
	 viewBox="0 0 200 200" style="enable-background:new 0 0 200 200;" xml:space="preserve">
<style type="text/css">
	.st0{display:none;}
	.st1{display:inline;fill:#FFFFFF;}
	.st2{fill:#FFFFFF;}
</style>
<g class="st0">
	<path class="st1" d="M147.5,200.8c-2.2-0.3-4.5-0.5-6.7-0.8c-42.8-4.7-78-23.7-105.5-57.2C19.2,123.1,8.8,100.3,3.7,75.2
		C1.5,64.6,0.3,53.9,0.6,43.1c0.1-4.1,1.5-7.9,4.5-11c3.8-3.9,7.6-7.6,11.4-11.5c7.8-8.2,20.2-9.2,29.8-2.2c5.1,3.7,8.6,8.7,10.2,15
		c1.9,7.8,4.4,15.4,6.1,23.2c1.8,8-0.4,15.1-5.9,21.1c-2.3,2.5-4.9,4.9-7.2,7.4c-0.5,0.5-0.8,1.7-0.6,2.3
		c8.1,27.1,24.7,47,50.1,59.3c4.4,2.1,9.1,3.5,13.7,5.3c1,0.4,1.8,0.2,2.5-0.6c2.3-2.5,4.7-4.9,7.1-7.2c6.3-6,13.7-7.9,22-5.9
		c7.8,1.9,15.4,4.3,23.1,6.3c9.8,2.6,19.2,13.3,18.2,26c-0.4,5.1-2.3,9.6-5.9,13.3c-4.1,4.2-8.1,8.5-12.4,12.4
		c-1.8,1.7-4.5,2.5-6.7,3.6c-0.7,0.3-1.4,0.5-2.1,0.8C154.8,200.8,151.2,200.8,147.5,200.8z"/>
	<path class="st1" d="M199.1,100.5c-4.1,0-8.1,0-12.4,0c-0.5-24.1-8.7-45-25.6-62c-16.8-17-37.4-25.3-61.2-25.8c0-4.1,0-8.2,0-12.6
		c3.5,0.2,7,0.2,10.4,0.6c12.4,1.4,24.3,4.8,35.3,10.8c26.9,14.7,44,37.1,51,67.2c1,4.4,1.4,9,2,13.5c0.1,0.6,0.2,1.1,0.4,1.7
		C199.1,96,199.1,98.2,199.1,100.5z"/>
	<path class="st1" d="M161.7,100.4c-4.1,0-8.1,0-12.3,0c-0.3-13.8-5-25.7-14.7-35.4c-9.6-9.6-21.3-14.4-34.8-14.7
		c0-4.2,0-8.3,0-12.3C130.6,36.5,162.4,64.1,161.7,100.4z"/>
	<path class="st1" d="M124.5,100.4c-4.1,0-8.1,0-12.2,0c-0.9-7.5-4.9-11.7-12.4-12.5c0-4.2,0-8.3,0-12.3
		C112.4,74.8,125.1,86.5,124.5,100.4z"/>
</g>
<g>
	<path class="st2" d="M184.3,6.8c0.3,0.1,0.6,0.3,0.9,0.4c9,2.6,11.8,13,5.2,19.7c-3.7,3.8-7.6,7.3-11.4,11
		c-4.4,4.4-8.8,8.8-13.2,13.2c-16,15.8-31.9,31.7-47.9,47.5c-0.5,0.5-1.1,0.9-1.8,1.5c0.6,0.6,1,1.1,1.4,1.5
		c7.6,7.6,15.2,15.2,22.8,22.8c12.9,12.8,25.9,25.6,38.8,38.4c4.2,4.1,8.5,8.1,12.6,12.3c4.9,4.9,5.1,12.1,0.5,16.8
		c-4.7,4.7-12.3,4.7-17.2-0.2c-6-6-12-12-18-18c-17.8-17.7-35.6-35.3-53.4-53c-1.4-1.3-2.9-2.5-4.4-3.9c-0.5,0.5-1,0.9-1.4,1.3
		c-3.4,3.4-6.8,6.8-10.2,10.1c-20.5,20.4-41,40.7-61.5,61.1c-7.5,7.4-17.8,4.9-21-5.1c0-0.1-0.2-0.2-0.2-0.3c0-1.4,0-2.8,0-4.3
		c1-3.6,3.5-6.2,6.1-8.7c4.9-4.6,9.7-9.3,14.4-14c13.3-13.2,26.6-26.3,39.9-39.5c5.3-5.2,10.5-10.5,15.8-15.8c0.5-0.5,0.9-1,1.7-1.8
		c-0.6-0.5-1.2-0.8-1.7-1.2c-6.1-6-12.4-12.1-18.6-18.3C48.9,66.9,35.3,53.4,21.8,40c-3.5-3.5-6.9-7-10.4-10.4
		c-2.7-2.6-5.2-5.2-6.3-8.8c0-1.4,0-2.8,0-4.3c1.4-5.1,4.6-8.3,9.7-9.7c1.3,0,2.6,0,3.9,0c2.4,1.3,5.3,2.1,7.2,4
		c21.7,21.4,43.4,43,65.1,64.6c2.3,2.3,4.6,4.6,6.9,6.9c0.4,0.4,0.9,0.9,1.4,1.3c1.5-1.3,3.1-2.5,4.4-3.9
		c17.1-16.9,34.1-33.8,51.2-50.8c5.4-5.3,10.7-10.7,16-16.1c2.5-2.6,5.1-5.1,8.7-6.1C181.2,6.8,182.8,6.8,184.3,6.8z"/>
</g>
</svg>
