<svg width="63" height="62" viewBox="0 0 63 62" fill="none" xmlns="http://www.w3.org/2000/svg">
<path d="M0.17627 13.8896C0.17627 18.7053 0.17627 23.5296 0.17627 28.3454C0.270696 28.9549 0.356538 29.5643 0.450964 30.1738C0.6484 30.852 0.854421 31.5301 1.05186 32.2169C1.1892 32.5516 1.33514 32.895 1.47248 33.2298C1.55833 33.2813 1.53257 33.3585 1.54116 33.4358C1.71284 33.6676 1.82444 33.9251 1.9532 34.1826C2.15922 34.5432 2.35666 34.9037 2.56268 35.2642C2.85454 35.5733 3.06914 35.9424 3.3095 36.2858C3.44685 36.3544 3.50694 36.5004 3.5842 36.6205C3.79022 36.8437 3.98765 37.0755 4.19367 37.2987C4.33102 37.436 4.45978 37.5734 4.59713 37.7107C4.8289 37.891 5.02634 38.097 5.21519 38.3202C5.40404 38.3717 5.50705 38.5262 5.61865 38.655C5.91051 38.8782 6.21096 39.11 6.50282 39.3331C6.54574 39.3589 6.58866 39.3761 6.63158 39.4018C7.2754 39.874 7.98789 40.2173 8.66604 40.6208C9.34419 40.9041 10.0052 41.2131 10.7005 41.4449C11.0439 41.5393 11.3786 41.6251 11.722 41.7196C11.9967 41.7281 12.2456 41.8741 12.5203 41.8569C12.4603 41.5565 12.4002 41.2474 12.3315 40.947C11.9967 39.4104 11.9967 37.8567 12.0053 36.2943C12.0139 33.247 12.0225 30.191 12.0053 27.1436C11.9967 25.504 12.0396 23.8644 12.4431 22.2592C13.2071 19.1946 14.7694 16.6022 17.173 14.542C19.9628 12.1384 23.2334 10.9023 26.9075 10.9366C34.6762 11.0053 42.4534 10.6963 50.2221 11.1083C50.2307 10.9796 50.1964 10.868 50.1535 10.7478C50.0504 10.4387 49.9646 10.1297 49.8702 9.82069C49.7157 9.49449 49.544 9.16829 49.4581 8.80775C49.398 8.782 49.398 8.72191 49.3895 8.6704C49.2349 8.37854 49.0718 8.07809 48.9173 7.78623C48.4967 7.08233 48.0246 6.42134 47.561 5.75178C47.4752 5.65735 47.3893 5.56292 47.3035 5.47708C47.1061 5.21956 46.84 5.0307 46.6854 4.73884C46.5481 4.653 46.4365 4.5414 46.3507 4.40406C46.1017 4.18087 45.8184 3.99202 45.6038 3.72591C45.4922 3.64006 45.3806 3.54564 45.2605 3.4598C44.9514 3.20227 44.5823 3.01342 44.3162 2.70439C43.9385 2.55846 43.6295 2.3181 43.2947 2.09491C43.0114 2.01765 42.7968 1.8288 42.5479 1.69145C42.4449 1.67428 42.3504 1.63136 42.2732 1.5541C41.9212 1.45109 41.5864 1.28799 41.2602 1.13348C40.5821 0.927458 39.9039 0.730022 39.2258 0.524001C38.8824 0.463912 38.5305 0.455328 38.2043 0.317981C37.9296 0.369486 37.6635 0.240723 37.3888 0.249307C36.9767 0.223555 36.5733 0.206386 36.1612 0.180634C35.8264 0.180634 35.4831 0.180634 35.1483 0.180634C34.8049 0.180634 34.4615 0.180634 34.1268 0.180634C33.792 0.180634 33.4486 0.180634 33.1138 0.180634C32.7705 0.180634 32.4271 0.180634 32.0923 0.180634C31.7575 0.180634 31.4142 0.180634 31.0794 0.180634C30.736 0.180634 30.3926 0.180634 30.0579 0.180634C29.7231 0.180634 29.3797 0.180634 29.0449 0.180634C28.7016 0.180634 28.3582 0.180634 28.0234 0.180634C27.6886 0.180634 27.3452 0.180634 27.0105 0.180634C26.6671 0.180634 26.3237 0.180634 25.9889 0.180634C25.6542 0.180634 25.3108 0.180634 24.976 0.180634C24.6326 0.180634 24.2893 0.180634 23.9545 0.180634C23.6197 0.180634 23.2763 0.180634 22.9416 0.180634C22.5982 0.180634 22.2548 0.180634 21.92 0.180634C21.5853 0.180634 21.2419 0.180634 20.9071 0.180634C20.5637 0.180634 20.2204 0.180634 19.8856 0.180634C19.5508 0.180634 19.2074 0.180634 18.8726 0.180634C18.5293 0.180634 18.1859 0.180634 17.8511 0.180634C17.5163 0.180634 17.173 0.180634 16.8382 0.180634C16.4948 0.180634 16.1515 0.180634 15.8167 0.180634C15.4819 0.180634 15.1385 0.180634 14.8037 0.180634C14.4174 0.206386 14.0312 0.223555 13.6449 0.249307C13.3444 0.223555 13.0611 0.369486 12.7607 0.326565C12.4259 0.429575 12.0825 0.489665 11.7392 0.515417C11.061 0.721438 10.3829 0.927458 9.70473 1.13348C9.36136 1.28799 9.02657 1.44251 8.68321 1.59703C8.60595 1.64853 8.52011 1.68287 8.4171 1.67428C8.21108 1.88889 7.93638 1.97473 7.67027 2.08632C6.98354 2.54987 6.28822 3.00483 5.62723 3.5113C5.57573 3.63148 5.45555 3.64865 5.36112 3.70874C5.13793 3.96626 4.91475 4.21521 4.6143 4.38689C4.53704 4.54999 4.40828 4.67017 4.27093 4.78176C4.07349 5.01354 3.86747 5.23673 3.67004 5.4685C3.60136 5.58009 3.51552 5.67452 3.39534 5.74319C3.27516 6.04364 3.03481 6.24966 2.86312 6.51577C2.59701 6.94498 2.31373 7.35702 2.03904 7.78623C1.73001 8.49014 1.36089 9.16829 1.08619 9.88936C0.897342 10.5418 0.639816 11.177 0.528222 11.8466C0.450964 12.2672 0.390875 12.6878 0.313617 13.117C0.253527 13.3745 0.330785 13.6492 0.17627 13.8896Z" fill="#322F2E"/>
<path d="M61.5444 43.4793C61.3985 43.8141 61.2526 44.1489 61.1067 44.4837C60.935 44.8013 60.7633 45.1189 60.5916 45.4451C60.5658 45.488 60.5401 45.5309 60.5143 45.5739C60.3169 45.8657 60.1195 46.1662 59.9135 46.458C59.7675 46.6555 59.6216 46.8615 59.4757 47.0589C59.3641 47.1963 59.2525 47.325 59.1409 47.4624C58.3168 48.4324 57.3811 49.2737 56.3768 50.0462C56.1707 50.1407 55.9991 50.2866 55.8274 50.4411C55.6471 50.4926 55.5012 50.6042 55.3552 50.7244C55.029 50.9047 54.7114 51.0849 54.3852 51.2566C54.2307 51.3339 54.0848 51.4025 53.9303 51.4798C53.8015 51.5141 53.6899 51.5742 53.5869 51.6515C53.2006 51.7974 52.8229 51.9433 52.4366 52.0893C51.767 52.3039 51.0803 52.4841 50.3936 52.6387C50.0073 52.6987 49.6296 52.7674 49.2433 52.8275C48.9944 52.8533 48.7454 52.8704 48.4965 52.8962C48.3935 52.8962 48.2905 52.8962 48.196 52.8962C47.5265 52.8962 47.5265 52.8962 47.5608 53.5743C47.5608 53.9177 47.5608 54.2525 47.5608 54.5959C47.5608 54.9306 47.5608 55.274 47.5608 55.6088C47.5608 55.9522 47.5608 56.2869 47.5608 56.6303C47.5608 56.9651 47.5608 57.3085 47.5608 57.6432C47.5608 57.9866 47.5608 58.3214 47.5608 58.6648C47.5608 58.9995 47.5608 59.3429 47.5608 59.6777C47.5608 60.0211 47.5608 60.3559 47.5608 60.6992C47.5522 60.9997 47.5522 61.3001 47.2775 61.5061C46.8397 61.6177 46.6852 61.2057 46.4019 61.0254C46.2903 60.9138 46.1787 60.8022 46.0671 60.6906C45.8611 60.4417 45.6379 60.2099 45.3804 60.0125C45.2774 59.8494 45.1315 59.7292 44.977 59.609C44.7967 59.4116 44.6336 59.1798 44.3846 59.0596C44.2473 58.8794 44.0756 58.7334 43.8953 58.5961C43.7237 58.4587 43.5863 58.2699 43.3717 58.1841C42.4103 57.3342 41.3544 56.6303 40.2299 56.0123C39.6032 55.6174 38.9423 55.2912 38.2555 55.0079C37.5516 54.6731 36.8391 54.3813 36.0923 54.1667C35.7833 54.0379 35.4657 53.9349 35.1395 53.8662C34.8562 53.7804 34.5729 53.6773 34.281 53.643C33.5686 53.4112 32.8217 53.3168 32.0921 53.1881C31.783 53.1537 31.474 53.085 31.165 53.0936C30.8044 53.0164 30.4353 52.9563 30.0576 52.982C29.8344 52.9734 29.6198 52.9649 29.3966 52.9563C28.9417 52.8361 28.4781 52.9219 28.0146 52.9134C27.6798 52.9134 27.3364 52.9134 27.0016 52.9134C26.727 52.9134 26.4523 52.9134 26.1861 52.9134C25.8084 52.879 25.4307 52.8533 25.053 52.8189C24.6839 52.7588 24.3148 52.6988 23.9457 52.6301C23.2589 52.4756 22.5894 52.261 21.9198 52.0635C21.6022 51.9348 21.2846 51.8146 20.9584 51.6858C20.8124 51.5828 20.6579 51.5227 20.4862 51.4712C20.3231 51.3424 20.1429 51.2566 19.9369 51.1965C19.5763 50.9905 19.2158 50.7759 18.8552 50.5699C18.8381 50.5527 18.8209 50.5355 18.8037 50.5184C18.4861 50.2866 18.1599 50.0548 17.8423 49.823C17.705 49.7115 17.5676 49.6084 17.4303 49.4968C17.25 49.3423 17.0697 49.1792 16.8895 49.0247C16.7349 48.8444 16.5718 48.6814 16.3744 48.5526C16.2371 48.2951 15.9967 48.132 15.8079 47.9259C15.6791 47.7714 15.5761 47.5826 15.3958 47.4624C15.2155 47.2135 15.0353 46.9731 14.855 46.7242C14.7863 46.6297 14.7177 46.5353 14.649 46.4409C14.2026 45.7456 13.782 45.0245 13.4214 44.2777C13.2927 43.9772 13.1639 43.6768 13.0352 43.3763C12.9407 43.1102 12.8463 42.8441 12.7433 42.578C12.7433 42.5265 12.7605 42.475 12.709 42.4321C12.6489 42.2346 12.5974 42.0286 12.5373 41.8312C12.4772 41.5307 12.4171 41.2217 12.3484 40.9212C12.0136 39.3847 12.0136 37.8309 12.0222 36.2686C12.0308 33.2212 12.0394 30.1652 12.0222 27.1178C12.0136 25.4783 12.0566 23.8387 12.46 22.2334C13.224 19.1689 14.7863 16.5765 17.1899 14.5163C19.9798 12.1127 23.2504 10.8766 26.9244 10.9109C34.6931 10.9796 42.4704 10.6705 50.2391 11.0826C50.6425 11.1684 51.046 11.2543 51.4494 11.3401C51.767 11.4345 52.0847 11.5204 52.4023 11.6148C53.089 11.8552 53.7672 12.147 54.4282 12.4475C55.1321 12.8166 55.8016 13.2372 56.4712 13.6664C56.6 13.778 56.7115 13.8896 56.8746 13.9583C57.0549 14.1643 57.2781 14.3188 57.4927 14.4819C57.673 14.6364 57.8532 14.7995 58.0335 14.954C58.1279 15.0914 58.2395 15.203 58.3769 15.2974C58.5915 15.5378 58.7975 15.7867 59.0464 15.9927C59.1409 16.2417 59.3641 16.3876 59.51 16.585C59.5958 16.6966 59.6903 16.8168 59.7761 16.9284C60.2053 17.5636 60.6174 18.216 60.9951 18.8856C61.3384 19.5895 61.6389 20.3106 61.905 21.0488C62.008 21.3922 62.1196 21.7441 62.2226 22.0875C62.2398 22.1991 62.2398 22.3107 62.2655 22.4223C62.4801 23.255 62.6089 24.0962 62.6175 24.9546C62.6432 28.1651 62.6518 31.3756 62.6346 34.5861C62.6261 36.7922 62.7892 39.007 62.2913 41.1873C62.1797 41.5822 62.0767 41.9685 61.9651 42.3634C61.8449 42.6982 61.7247 43.033 61.596 43.3763C61.5359 43.4107 61.5273 43.445 61.5444 43.4793ZM52.9259 32.2598C52.8658 30.6631 51.3722 29.2124 49.7068 29.221C47.9213 29.2296 46.462 30.6975 46.4706 32.4658C46.4792 34.2341 47.9299 35.6849 49.6897 35.6763C51.4323 35.7106 53.0032 34.2513 52.9259 32.2598ZM40.0153 32.4401C40.0153 30.6717 38.5302 29.221 36.7533 29.2296C35.0021 29.2381 33.5514 30.7146 33.56 32.4744C33.5771 34.2771 35.0107 35.6935 36.8048 35.6935C38.5989 35.6763 40.0067 34.2341 40.0153 32.4401ZM27.0961 32.4143C27.0875 30.6288 25.5681 29.1609 23.7826 29.2296C21.9713 29.2982 20.6236 30.6889 20.6322 32.5087C20.6408 34.2857 22.1516 35.7278 23.877 35.6849C25.6024 35.6935 27.1047 34.2857 27.0961 32.4143Z" fill="#A7222F"/>
<path d="M49.6812 35.6849C51.4324 35.702 52.9947 34.2513 52.9261 32.2598C52.866 30.6631 51.3723 29.2124 49.707 29.221C47.9215 29.2295 46.4622 30.6974 46.4707 32.4658C46.4793 34.2427 47.9301 35.6934 49.6812 35.6849Z" fill="#A7222F"/>
<path d="M36.8049 35.6849C38.599 35.6763 40.0154 34.2341 40.0154 32.4314C40.0154 30.6631 38.5303 29.2124 36.7534 29.221C35.0022 29.2295 33.5515 30.706 33.5601 32.4658C33.5687 34.2685 35.0022 35.6934 36.8049 35.6849Z" fill="#A7222F"/>
<path d="M23.8689 35.6849C25.5943 35.6934 27.0965 34.2856 27.088 32.4143C27.0794 30.6288 25.56 29.1609 23.7745 29.2295C21.9632 29.2982 20.6155 30.6889 20.6241 32.5087C20.6412 34.2856 22.1521 35.7278 23.8689 35.6849Z" fill="#A7222F"/>
</svg>
