<?xml version="1.0" encoding="utf-8"?>
<!-- Generator: Adobe Illustrator 24.1.2, SVG Export Plug-In . SVG Version: 6.00 Build 0)  -->
<svg version="1.1" id="Слой_1" xmlns="http://www.w3.org/2000/svg" xmlns:xlink="http://www.w3.org/1999/xlink" x="0px" y="0px"
	 viewBox="0 0 200 200" style="enable-background:new 0 0 200 200;" xml:space="preserve">
<style type="text/css">
	.st0{display:none;}
	.st1{display:inline;fill:#332F2E;}
	.st2{display:inline;fill:#FFFFFF;}
	.st3{display:inline;fill:#A50F25;}
	.st4{display:inline;fill:#1C120D;}
	.st5{display:inline;}
	.st6{fill:none;}
	.st7{fill:#120703;}
	.st8{fill:#FFFFFF;}
	.st9{fill:#1C1C1B;}
</style>
<g class="st0">
	<path class="st1" d="M138.6,194.7c-40.8-4.5-74.4-22.6-100.6-54.5C22.6,121.4,12.6,99.6,7.8,75.7c-2.1-10.1-3.2-20.3-3-30.6
		c0.1-3.9,1.4-7.5,4.3-10.5c3.6-3.7,7.3-7.2,10.9-11c7.4-7.8,19.3-8.8,28.4-2.1c4.9,3.5,8.2,8.3,9.7,14.3C60,43.3,62.3,50.5,64,58
		c1.7,7.6-0.4,14.4-5.6,20.1c-2.2,2.4-4.7,4.7-6.9,7.1c-0.5,0.5-0.8,1.6-0.6,2.2c7.7,25.8,23.6,44.8,47.8,56.5
		c4.2,2,8.7,3.3,13.1,5.1c1,0.4,1.7,0.2,2.4-0.6c2.2-2.4,4.5-4.7,6.8-6.9c6-5.7,13.1-7.5,21-5.6c7.4,1.8,14.7,4.1,22,6
		c9.3,2.5,18.3,12.7,17.4,24.8c-0.4,4.9-2.2,9.1-5.6,12.7c-3.9,4-13.1,14-20.7,16.1C151.6,196.4,140.7,194.9,138.6,194.7z"/>
	<path class="st1" d="M194.2,99.8c-3.9,0-7.7,0-11.8,0c-0.5-23-8.3-42.9-24.4-59.1c-16-16.2-35.7-24.1-58.4-24.6c0-3.9,0-7.8,0-12
		c3.3,0.2,6.7,0.2,9.9,0.6C121.3,6,132.7,9.3,143.1,15c25.7,14,42,35.4,48.7,64c1,4.2,1.3,8.6,1.9,12.9c0.1,0.6,0.2,1,0.4,1.6
		C194.2,95.5,194.2,97.6,194.2,99.8z"/>
	<path class="st1" d="M158.5,99.7c-3.9,0-7.7,0-11.7,0c-0.3-13.2-4.8-24.5-14-33.7c-9.2-9.1-20.3-13.7-33.2-14c0-4,0-7.9,0-11.7
		C128.8,38.8,159.2,65.1,158.5,99.7z"/>
	<path class="st1" d="M123,99.7c-3.9,0-7.7,0-11.6,0c-0.9-7.1-4.7-11.2-11.8-11.9c0-4,0-7.9,0-11.7C111.5,75.3,123.6,86.5,123,99.7z
		"/>
</g>
<g class="st0">
	<path class="st2" d="M184.3,6.8c0.3,0.1,0.6,0.3,0.9,0.4c9,2.6,11.8,13,5.2,19.7c-3.7,3.8-7.6,7.3-11.4,11
		c-4.4,4.4-8.8,8.8-13.2,13.2c-16,15.8-31.9,31.7-47.9,47.5c-0.5,0.5-1.1,0.9-1.8,1.5c0.6,0.6,1,1.1,1.4,1.5
		c7.6,7.6,15.2,15.2,22.8,22.8c12.9,12.8,25.9,25.6,38.8,38.4c4.2,4.1,8.5,8.1,12.6,12.3c4.9,4.9,5.1,12.1,0.5,16.8
		c-4.7,4.7-12.3,4.7-17.2-0.2c-6-6-12-12-18-18c-17.8-17.7-35.6-35.3-53.4-53c-1.4-1.3-2.9-2.5-4.4-3.9c-0.5,0.5-1,0.9-1.4,1.3
		c-3.4,3.4-6.8,6.8-10.2,10.1c-20.5,20.4-41,40.7-61.5,61.1c-7.5,7.4-17.8,4.9-21-5.1c0-0.1-0.2-0.2-0.2-0.3c0-1.4,0-2.8,0-4.3
		c1-3.6,3.5-6.2,6.1-8.7c4.9-4.6,9.7-9.3,14.4-14c13.3-13.2,26.6-26.3,39.9-39.5c5.3-5.2,10.5-10.5,15.8-15.8c0.5-0.5,0.9-1,1.7-1.8
		c-0.6-0.5-1.2-0.8-1.7-1.2C75,92.6,68.7,86.5,62.5,80.3C48.9,66.9,35.3,53.4,21.8,40c-3.5-3.5-6.9-7-10.4-10.4
		c-2.7-2.6-5.2-5.2-6.3-8.8c0-1.4,0-2.8,0-4.3c1.4-5.1,4.6-8.3,9.7-9.7c1.3,0,2.6,0,3.9,0c2.4,1.3,5.3,2.1,7.2,4
		C47.6,32.2,69.3,53.8,91,75.4c2.3,2.3,4.6,4.6,6.9,6.9c0.4,0.4,0.9,0.9,1.4,1.3c1.5-1.3,3.1-2.5,4.4-3.9
		c17.1-16.9,34.1-33.8,51.2-50.8c5.4-5.3,10.7-10.7,16-16.1c2.5-2.6,5.1-5.1,8.7-6.1C181.2,6.8,182.8,6.8,184.3,6.8z"/>
	<path class="st2" d="M15.6,4.2c-5.1,1.4-8.3,4.6-9.7,9.7c0-3.2,0-6.5,0-9.7C9.1,4.2,12.4,4.2,15.6,4.2z"/>
</g>
<g class="st0">
	<path class="st2" d="M167.3,54.7c3.4,21.3-7,42.3-11.2,51.8c-14.6,32.9-55.1,93.2-55.1,93.2s-40-61.3-53.5-91
		c-7.3-16-14.1-31.9-12-50.8c2.3-20.1,11.5-32.8,25.7-44C74.4,3.5,89.6,0.3,106.1,1.1c19.5,0.9,34.7,9.6,47.2,24.1
		C160.7,33.8,165.6,43.9,167.3,54.7z M100.7,96.3c19.8-0.2,33.8-13.7,34.1-33.1c0.3-19.7-13-33.9-33.3-34.1
		C82.7,28.8,68.6,43,67.8,61.8C67.2,79.5,83.4,96.1,100.7,96.3z"/>
</g>
<g class="st0">
	<path class="st3" d="M110.3,78.9c0.7-0.9,1.1-2,1.6-3c5.2-10.8,12.1-20.6,19.4-30.1c4.7-6.1,9.8-11.9,15.2-17.4
		c7-7.1,15-12.8,23.9-17.4c1.2-0.6,2.4-1.2,3.7-1.7c1.4-0.6,2.8-0.8,4.4-0.6c-1,0.6-1.9,1.2-2.9,1.9c0,0.1,0.1,0.1,0.1,0.2
		c1.1-0.6,2.2-1.1,3.3-1.7c-0.6,0.9-1.5,1.4-2.2,2.3c0.3,0.1,0.5,0,0.7,0c1.3-0.3,2.5-0.9,3.7-1.4c0.3-0.1,0.5-0.2,0.5,0.2
		c0,0.2,0.2,0.1,0.3,0.1c0.5-0.1,0.9-0.3,1.4-0.5c0.7-0.4,1.5-0.5,2.3-0.4c0.1,0.3-0.2,0.4-0.4,0.5c-1,0.9-2,1.6-3.1,2.3
		c-0.8,0.6-1.5,1.1-2.3,1.9c0.4,0.1,0.6,0,0.9,0c1.2-0.2,2.3-0.7,3.4-1.2c2-0.8,4-1.7,6-2.5c1.2-0.5,2.5-0.6,3.7-0.3
		c0.3,0.1,0.6,0.1,0.7,0.4c0,0.3-0.2,0.5-0.5,0.7c-0.4,0.3-0.9,0.5-1.4,0.7c-7.6,3.7-14.7,8-21.2,13.4C161,33.8,152.3,44,145.4,55.6
		c-4.2,6.9-8,14-11.7,21.3c-0.1,0.2-0.2,0.4-0.3,0.6c0,0,0,0.1,0,0.2c0.3,0.1,0.7,0,1,0.1c-0.1,0.1-0.3,0.1-0.4,0.1
		c-0.6-0.1-1,0.2-1.2,0.8c-1.7,3.4-3.4,6.8-5,10.3c-0.5,1.1-1,2.2-1.3,3.4c-0.2,0.3-0.3,0.6-0.5,0.9c-4.2,9.7-7.9,19.5-10.9,29.6
		c-3.5,11.8-7,23.5-10.2,35.4c-1,3.9-3.4,6.7-7.1,8.4c-1.7,0.8-3.5,1.4-5.3,1.6c-2.9,0.4-5.6,0-8.2-1.5c-0.8-0.5-1.4-1.2-1.6-2.1
		c-0.4-1.9-1-3.7-1.6-5.5c-1.6-4.4-3.6-8.6-5.8-12.7c-4.6-8.6-9.5-17.1-14.3-25.6c-2.8-4.9-5.5-9.9-7.8-15.1
		c-0.4-0.8-0.7-1.7-0.9-2.6c-0.1-0.7-0.3-1.4-0.2-2.2c0.3,0.2,0.5,0.4,0.7,0.6c1.1,0.9,1.9,2.1,2.9,3.1c0.3,0.3,0.4,0.9,0.9,0.6
		c0.4-0.2,0.1-0.7,0-1.1c-0.2-1.1-0.7-2.1-1.1-3.2c-0.3-0.7-0.1-1,0.7-1c0.4,0,0.9,0.1,1.3,0.1c0.8,0.1,1,0,1.3-0.8
		c0-0.1,0.1-0.3,0.1-0.4c0.5-1.2,1.3-2,2.6-2.3c0.4-0.1,0.8-0.3,1.2-0.4c2.8-1.1,5.3-0.6,7.4,1.6c0.8,0.9,1.5,1.9,2.1,2.9
		c0.7,1.3,1.5,2.6,2.2,3.9c2.8,4.7,5.5,9.4,8.3,14.2c2.8,4.8,5.4,9.7,8.3,14.4c0.2,0.3,0.3,0.6,0.6,0.8c0.1-0.3,0.2-0.6,0.2-0.9
		c2.7-10.4,5.7-20.6,9.3-30.7c1.3-3.6,2.6-7.2,3.9-10.8c0.1-0.2,0.2-0.3,0.3-0.5c1.6-3.9,3.3-7.7,4.9-11.6
		C110.3,79.3,110.3,79.1,110.3,78.9z"/>
	<path class="st4" d="M126.5,92.3c0.3-1.2,0.8-2.3,1.3-3.4c1.6-3.5,3.3-6.9,5-10.3c0.3-0.6,0.6-1.1,0.6-1.1s0.9,0,1.2,0.1
		c2-0.1,3.1,0.8,3.9,2.6c1.3,2.8,1.7,5.7,1.6,8.8c0,0.8-0.1,1.6-0.2,2.4c-0.2-1.7-0.5-3.5-0.7-5.2c0-0.3,0.1-0.5-0.2-0.8
		c-0.1,0.3-0.1,0.6-0.1,0.8c0,3.7,0.3,7.5,0.4,11.2c0.1,2.9,0.3,5.9,0.4,8.8c0.3,5.7,0.5,11.4,0.8,17.1c0.3,4.4,0.5,8.8,0.8,13.2
		c0.3,4.4,0.6,8.7,0.7,13.1c0.2,5,0.3,10,0.5,14.9c0.1,2.6,0.3,5.2,0.2,7.8c-0.2,5.1-1.7,9.9-4.1,14.3c-1.1,2.1-2.9,3.3-5.4,3.3
		c-1.1,0-2.2,0.3-3.3,0.6c-2.9,0.8-5.9,1.2-8.9,1.7c-4.4,0.7-8.8,0.8-13.2,1.1c-3.5,0.2-7,0.4-10.4,0.8c-0.5,0.1-1,0.1-1.4-0.1
		c4.6-0.7,9.2-1.5,13.9-2.2c-0.2-0.3-0.5-0.2-0.7-0.2c-0.8,0-1.6,0.1-2.4,0.1c-5.6,0.5-11.2,1-16.8,1.6c-5.8,0.5-11.6,1.1-17.4,1.6
		c-5.3,0.5-10.6,0.7-16,0.8c-3.5,0.1-6.9,0.1-10.4-0.1c-3.1-0.2-6.2-0.5-9.3-1c-1.3-0.2-1.7-0.7-1.9-2c-0.4-3.2-0.6-6.5-0.9-9.7
		c-0.4-4.6-0.7-9.1-0.9-13.7c-0.2-3.7-0.3-7.3-0.3-11c0-9,0-18.1,0.1-27.1c0.1-7.3,0.1-14.6,0.3-21.9c0.1-4.6,0.4-9.3,1-13.9
		c0.4-3,1-6.1,1.7-9.1c0.3-1.4,0.9-2.7,1.6-3.9c1.1-1.9,2.8-2.9,5-3c6.9-0.5,13.8-0.7,20.7-0.7c3.9,0,7.8-0.2,11.7-0.3
		c5.5-0.1,10.9,0,16.4,0.2c3.6,0.2,7.2,0.2,10.8,0.3c2.6,0.1,5.2,0.1,7.8,0.1c0,0.2,0,0.4-0.1,0.6c-1.7,3.8-3.3,7.7-4.9,11.6
		c-0.1,0.2-0.2,0.4-0.3,0.5c-0.2,0-0.3,0-0.5,0c-2.3,0.4-4.6,0.5-7,0.5c-7.1,0-14.1-0.6-21.2-0.9c-0.4,0-0.9-0.1-1.3-0.2
		c-0.2,0-0.5-0.1-0.5-0.3c0-0.4-0.3-0.3-0.5-0.2c-0.6,0.2-1.1,0.2-1.7,0.2c-1.1,0-2.2-0.1-3.4-0.2c-2.2-0.1-4.4-0.3-6.5-0.4
		c-2.4-0.2-4.7-0.1-7.1-0.1c-0.2,0-0.6,0.1-0.5-0.2c0-0.3,0.4-0.2,0.6-0.2c2.3,0,4.7-0.1,7-0.2c1-0.1,1.9-0.1,2.9-0.2
		c-0.1-0.3-0.3-0.3-0.4-0.3c-1-0.1-2-0.1-2.9-0.2c-3.9-0.1-7.8-0.1-11.7-0.3c-0.7,0-1.3-0.1-2-0.1c-2.3-0.1-3.8,0.9-4.1,3.3
		c0,0.3-0.1,0.5-0.1,0.8c-0.4,4-0.9,8-1.1,11.9c-0.4,6.1-0.6,12.2-0.4,18.4c-0.1-0.1-0.2,0-0.2,0c-0.2-0.8-0.1-1.7-0.5-2.4
		c0,1.8,0,3.7,0.1,5.5c0.2,3.3,0.4,6.6,0.6,9.9c0.3,4.8,0.5,9.5,0.8,14.3c0.5,5.9,0.8,11.8,1.4,17.6c0.3,2.7,0.7,5.4,1.2,8.1
		c0.2,1,0.8,1.7,1.9,2c4.2,1.3,8.5,1.6,12.9,1.5c2-0.1,4-0.2,6,0c0.8,0.1,1.6,0,2.4-0.1c3.1-0.3,6.3-0.5,9.4-0.7c4-0.3,8-0.2,12-0.2
		c5.3,0.1,10.6-0.1,16-0.3c3.5-0.1,6.9-0.4,10.3-0.6c2.6-0.2,5.3-0.3,7.9-0.8c2.7-0.5,5.4-1.1,8.1-1.8c1.1-0.3,1.6-0.9,1.6-2
		c0.1-1.4,0.1-2.7,0.2-4.1c0.2-3.9,0.4-7.9,0.6-11.8c0-0.8,0.1-1.7,0-2.5c-0.5,1.9-0.3,3.9-0.9,5.9c-0.2-0.9-0.2-1.6-0.2-2.3
		c-0.1-2.4-0.3-4.9-0.4-7.3c-0.3-4.2-0.5-8.4-0.8-12.7c-0.2-3.1-0.3-6.2-0.4-9.2c-0.1-4.4-0.2-8.9,0-13.3c0.1-2.2,0.3-4.4,0.4-6.6
		c0.2-5.1,0.1-10.2-0.3-15.4c-0.1-0.9-0.1-0.9-1-0.9C129.8,92.3,128.2,92.3,126.5,92.3z"/>
	<path class="st3" d="M193,8.4c-1.8,0.4-3.4,1.1-5.1,1.9C188.4,8.7,190.3,8,193,8.4z"/>
	<path class="st3" d="M188.2,8.4c-0.4,1-1.3,1.5-2.1,1.9c0,0-0.1,0-0.1-0.1l0,0C186.6,9.4,187.3,8.8,188.2,8.4L188.2,8.4z"/>
	<polygon class="st3" points="188.2,8.4 188.3,8.4 188.2,8.4 	"/>
	<path class="st3" d="M185.9,10.2C185.9,10.2,185.9,10.2,185.9,10.2C185.9,10.2,185.9,10.2,185.9,10.2
		C185.9,10.2,185.9,10.2,185.9,10.2z"/>
	<path class="st4" d="M89.2,92.5c-1.5,0.2-3,0.5-4.5,0.4c-0.7,0-1.4-0.1-2-0.4C84.1,92.1,86.7,92.1,89.2,92.5
		C89.1,92.4,89.1,92.5,89.2,92.5L89.2,92.5z"/>
	<path class="st4" d="M99.2,93.3c-2,0.2-4,0.3-6,0.1c0.8-0.4,1.7-0.5,2.6-0.5c1.2-0.1,2.4,0.1,3.6,0.2
		C99.4,93.2,99.2,93.2,99.2,93.3z"/>
</g>
<g class="st0">
	<g class="st5">
		<ellipse class="st6" cx="101.6" cy="110" rx="80.6" ry="30.2"/>
		<path class="st7" d="M101.6,142.2c-46.4,0-82.7-14.2-82.7-32.2s36.3-32.2,82.7-32.2s82.7,14.2,82.7,32.2S147.9,142.2,101.6,142.2z
			 M101.6,81.7C59,81.7,23,94.7,23,110s36,28.3,78.5,28.3s78.5-12.9,78.5-28.3S144.1,81.7,101.6,81.7z"/>
	</g>
	<g class="st5">
		<path class="st6" d="M33.8,110.9c14.4-8.2,39.2-13.7,67.4-13.7c29.6,0,55.5,6,69.5,14.9"/>
		<path class="st7" d="M170.7,114.1c-0.4,0-0.8-0.1-1.2-0.3c-14.1-9-40.3-14.6-68.3-14.6c-26.9,0-51.7,5-66.3,13.4
			c-1,0.6-2.3,0.3-2.9-0.7c-0.6-0.9-0.3-2.2,0.7-2.7c15.3-8.7,40.9-13.9,68.5-13.9c29.3,0,55.7,5.7,70.7,15.3c1,0.6,1.2,1.8,0.6,2.8
			C172,113.8,171.3,114.1,170.7,114.1z"/>
	</g>
	<g class="st5">
		<path class="st7" d="M101.3,197.4c-45.5,0-82.5-38.3-82.5-85.4H23c0,44.9,35.1,81.4,78.3,81.4s78.3-36.5,78.3-81.4h4.2
			C183.8,159.1,146.8,197.4,101.3,197.4z"/>
	</g>
	<g class="st5">
		<g>
			<path class="st7" d="M94.8,70.8c-5.1-2.6-9.3-6.7-11.7-11.7c-2.5-5.2-2.6-11.5-0.2-16.8c2.5-5.4,8-8.9,10.5-14.3
				c2.1-4.4,2.2-9.5,0.6-14.2c-1.8-5.1-5.5-9.6-10.7-11.9c-2.3-1-4.3,2.2-2,3.2c8.8,3.9,12.6,15.1,7.5,23c-1.6,2.5-3.8,4.6-5.7,6.9
				c-2,2.4-3.7,5-4.7,7.9c-2,5.8-1.5,12.1,1.1,17.7C82.2,66.3,87.1,71,92.9,74C95.1,75.1,97.1,71.9,94.8,70.8L94.8,70.8z"/>
		</g>
	</g>
	<g class="st5">
		<g>
			<path class="st7" d="M120,70.5c-3.7-2.2-7.4-4.7-9.6-8.3c-2.4-4-3.8-8.9-2.4-13.4c1.5-4.9,6.4-7.8,9-12.1c2.4-3.9,3.4-8.5,3.1-13
				c-0.4-5.2-2.4-10.2-6.1-14.1c-1.7-1.8-4.5,0.9-2.8,2.6c6.2,6.6,6.7,17.2,1.2,24.3c-1.6,2.1-3.7,3.8-5.3,5.9
				c-1.7,2.2-2.9,4.6-3.3,7.3c-0.7,4.9,0.6,9.8,3.1,14c2.6,4.3,6.9,7.2,11.2,9.9C120.1,75,122.1,71.8,120,70.5L120,70.5z"/>
		</g>
	</g>
</g>
<g class="st0">
	<g class="st5">
		<path class="st6" d="M156.1,145.9c-32.2,43.1-74.4,46.3-105.2,23.2s-38.6-63.5-6.4-106.6S167.5,13,167.5,13
			S188.3,102.8,156.1,145.9z"/>
		<path class="st7" d="M49.3,171.2C14.5,145.2,11.8,102,42.4,61c32.5-43.6,121.2-50.3,125-50.6l2.2-0.2l0.5,2.1
			c0.9,3.7,20.7,91.5-11.9,135.1c-15.6,20.9-34.5,33.8-54.7,37.4C84.8,188.2,65.6,183.4,49.3,171.2z M165.5,15.7
			c-14,1.3-90.6,10.4-119,48.3c-28.7,38.5-26.4,78.9,5.9,103c33,24.7,72.9,15.7,101.6-22.7C182.4,106.4,168.3,29.6,165.5,15.7z"/>
	</g>
	<g class="st5">
		<line class="st8" x1="141.6" y1="49.5" x2="34.6" y2="194"/>
		<path class="st7" d="M33,196c-1.1-0.8-1.4-2.4-0.5-3.6L139.5,48c0.8-1.1,2.5-1.4,3.6-0.5c0,0,0,0,0,0c1.1,0.8,1.4,2.4,0.5,3.6
			l-107,144.5C35.8,196.6,34.2,196.9,33,196C33.1,196,33,196,33,196z"/>
	</g>
	<g class="st5">
		<line class="st8" x1="60.9" y1="155.1" x2="51.5" y2="121.9"/>
		<path class="st7" d="M59.4,157.1c-0.4-0.3-0.8-0.8-0.9-1.4L49,122.6c-0.4-1.4,0.4-2.8,1.8-3.2c1.4-0.4,2.8,0.4,3.2,1.8l9.5,33.2
			c0.4,1.4-0.4,2.8-1.8,3.2C60.8,157.8,60,157.6,59.4,157.1z"/>
	</g>
	<g class="st5">
		<line class="st8" x1="63.9" y1="156.7" x2="98.4" y2="156.3"/>
		<path class="st7" d="M62.4,158.8c-0.6-0.5-1-1.2-1-2c0-1.4,1.1-2.6,2.5-2.6l34.5-0.4c1.4,0,2.6,1.1,2.6,2.5c0,1.4-1.1,2.6-2.5,2.6
			l-34.5,0.4C63.4,159.3,62.8,159.1,62.4,158.8z"/>
	</g>
	<g class="st5">
		<line class="st8" x1="88" y1="121.2" x2="78.6" y2="88"/>
		<path class="st7" d="M86.5,123.3c-0.4-0.3-0.8-0.8-0.9-1.4l-9.5-33.2c-0.4-1.4,0.4-2.8,1.8-3.2c1.4-0.4,2.8,0.4,3.2,1.8l9.5,33.2
			c0.4,1.4-0.4,2.8-1.8,3.2C87.9,123.9,87.1,123.7,86.5,123.3z"/>
	</g>
	<g class="st5">
		<line class="st8" x1="91" y1="122.9" x2="125.5" y2="122.5"/>
		<path class="st7" d="M89.5,124.9c-0.6-0.5-1-1.2-1-2c0-1.4,1.1-2.6,2.5-2.6l34.5-0.4c1.4,0,2.6,1.1,2.6,2.5c0,1.4-1.1,2.6-2.5,2.6
			L91,125.4C90.4,125.4,89.9,125.2,89.5,124.9z"/>
	</g>
	<g class="st5">
		<line class="st8" x1="113.1" y1="87.7" x2="103.6" y2="54.5"/>
		<path class="st7" d="M111.5,89.7c-0.4-0.3-0.8-0.8-0.9-1.4l-9.5-33.2c-0.4-1.4,0.4-2.8,1.8-3.2c1.4-0.4,2.8,0.4,3.2,1.8l9.5,33.2
			c0.4,1.4-0.4,2.8-1.8,3.2C113,90.4,112.2,90.2,111.5,89.7z"/>
	</g>
	<g class="st5">
		<line class="st8" x1="116.1" y1="89.3" x2="150.6" y2="88.9"/>
		<path class="st7" d="M114.5,91.4c-0.6-0.5-1-1.2-1-2c0-1.4,1.1-2.6,2.5-2.6l34.5-0.4c1.4,0,2.6,1.1,2.6,2.5c0,1.4-1.1,2.6-2.5,2.6
			l-34.5,0.4C115.5,91.9,115,91.7,114.5,91.4z"/>
	</g>
</g>
<g class="st0">
	<g class="st5">
		<circle class="st6" cx="101.2" cy="99.7" r="90.6"/>
		<path class="st7" d="M101.2,192.9C49.8,192.9,8,151.1,8,99.7S49.8,6.5,101.2,6.5s93.2,41.8,93.2,93.2S152.6,192.9,101.2,192.9z
			 M101.2,11.7c-48.5,0-88,39.5-88,88s39.5,88,88,88s88-39.5,88-88S149.7,11.7,101.2,11.7z"/>
	</g>
	<g class="st5">
		<circle class="st6" cx="101.2" cy="99.7" r="69.2"/>
		<path class="st7" d="M101.2,171.5c-39.6,0-71.8-32.2-71.8-71.8s32.2-71.8,71.8-71.8S173,60.1,173,99.7S140.8,171.5,101.2,171.5z
			 M101.2,33.1c-36.7,0-66.6,29.9-66.6,66.6s29.9,66.6,66.6,66.6s66.6-29.9,66.6-66.6S137.9,33.1,101.2,33.1z"/>
	</g>
	<g class="st5">
		<line class="st8" x1="100.7" y1="101.5" x2="99.2" y2="49.3"/>
		<path class="st7" d="M100.7,104.2c-1.4,0-2.6-1.1-2.6-2.5l-1.5-52.2c0-1.4,1.1-2.6,2.5-2.7c1.4-0.1,2.6,1.1,2.7,2.5l1.5,52.2
			C103.3,102.9,102.2,104.1,100.7,104.2C100.7,104.2,100.7,104.2,100.7,104.2z"/>
	</g>
	<g class="st5">
		<line class="st8" x1="100.7" y1="101.5" x2="129" y2="77.6"/>
		<path class="st7" d="M100.7,104.2c-0.7,0-1.5-0.3-2-0.9c-0.9-1.1-0.8-2.7,0.3-3.7l28.3-23.9c1.1-0.9,2.7-0.8,3.7,0.3
			c0.9,1.1,0.8,2.7-0.3,3.7l-28.3,23.9C101.9,103.9,101.3,104.2,100.7,104.2z"/>
	</g>
</g>
<g class="st0">
	<g class="st5">
		<path class="st7" d="M100.6,196.3c-1.5,0-2.7-1.2-2.7-2.7V8.4c0-1.5,1.2-2.7,2.7-2.7s2.7,1.2,2.7,2.7v185.1
			C103.3,195,102.1,196.3,100.6,196.3z"/>
	</g>
	<g class="st5">
		<line class="st8" x1="8.1" y1="101" x2="193.2" y2="101"/>
		<path class="st7" d="M193.2,103.7H8.1c-1.5,0-2.7-1.2-2.7-2.7s1.2-2.7,2.7-2.7h185.1c1.5,0,2.7,1.2,2.7,2.7
			S194.7,103.7,193.2,103.7z"/>
	</g>
	<g class="st5">
		<line class="st8" x1="35.2" y1="35.6" x2="166.1" y2="166.4"/>
		<path class="st7" d="M166.1,169.1c-0.7,0-1.4-0.3-1.9-0.8L33.3,37.5c-1.1-1.1-1.1-2.8,0-3.8c1.1-1.1,2.8-1.1,3.8,0L168,164.5
			c1.1,1.1,1.1,2.8,0,3.8C167.5,168.9,166.8,169.1,166.1,169.1z"/>
	</g>
	<g class="st5">
		<line class="st8" x1="166.1" y1="35.6" x2="35.2" y2="166.4"/>
		<path class="st7" d="M35.2,169.1c-0.7,0-1.4-0.3-1.9-0.8c-1.1-1.1-1.1-2.8,0-3.8L164.2,33.6c1.1-1.1,2.8-1.1,3.8,0s1.1,2.8,0,3.8
			L37.1,168.4C36.6,168.9,35.9,169.1,35.2,169.1z"/>
	</g>
</g>
<g class="st0">
	<g class="st5">
		<ellipse class="st6" cx="62.6" cy="63.3" rx="52.3" ry="50.4"/>
		<path class="st7" d="M62.6,116.3c-30.3,0-55-23.8-55-53s24.7-53,55-53s55,23.8,55,53S92.9,116.3,62.6,116.3z M62.6,15.5
			c-27.4,0-49.7,21.4-49.7,47.8S35.2,111,62.6,111s49.7-21.4,49.7-47.8S90,15.5,62.6,15.5z"/>
	</g>
	<g class="st5">
		<circle class="st6" cx="155.5" cy="117.6" r="36.6"/>
		<path class="st7" d="M155.5,156.8c-21.6,0-39.3-17.6-39.3-39.3s17.6-39.3,39.3-39.3s39.3,17.6,39.3,39.3S177.1,156.8,155.5,156.8z
			 M155.5,83.5c-18.8,0-34,15.3-34,34s15.3,34,34,34s34-15.3,34-34S174.3,83.5,155.5,83.5z"/>
	</g>
	<g class="st5">
		<circle class="st6" cx="82.9" cy="157.5" r="29.4"/>
		<path class="st7" d="M82.9,189.5c-17.7,0-32.1-14.4-32.1-32.1s14.4-32.1,32.1-32.1s32.1,14.4,32.1,32.1S100.5,189.5,82.9,189.5z
			 M82.9,130.7c-14.8,0-26.8,12-26.8,26.8s12,26.8,26.8,26.8s26.8-12,26.8-26.8S97.7,130.7,82.9,130.7z"/>
	</g>
	<g class="st5">
		<path class="st9" d="M30.9,82.9V41.7h14.2c3.2,0,5.7,0.2,7.3,0.6c2.4,0.5,4.4,1.5,6,3c2.2,1.8,3.8,4.2,4.9,7
			c1.1,2.9,1.6,6.1,1.6,9.8c0,3.1-0.4,5.9-1.1,8.3s-1.7,4.4-2.8,6c-1.1,1.6-2.4,2.8-3.8,3.7c-1.4,0.9-3,1.6-4.9,2.1
			c-1.9,0.5-4.1,0.7-6.6,0.7H30.9z M36.3,78h8.8c2.7,0,4.8-0.3,6.4-0.8c1.5-0.5,2.8-1.2,3.7-2.1c1.3-1.3,2.3-3,3-5.2
			c0.7-2.2,1.1-4.8,1.1-7.9c0-4.3-0.7-7.6-2.1-9.9c-1.4-2.3-3.1-3.9-5.2-4.7c-1.5-0.6-3.8-0.8-7.1-0.8h-8.7V78z"/>
		<path class="st9" d="M70.4,72l5.1-0.7c0.6,2.9,1.6,4.9,3,6.2c1.4,1.3,3.1,1.9,5.1,1.9c2.4,0,4.4-0.8,6-2.5
			c1.6-1.6,2.5-3.7,2.5-6.1c0-2.3-0.8-4.2-2.3-5.7c-1.5-1.5-3.4-2.3-5.8-2.3c-1,0-2.1,0.2-3.6,0.6l0.6-4.4c0.3,0,0.6,0.1,0.8,0.1
			c2.2,0,4.1-0.6,5.8-1.7c1.7-1.1,2.6-2.9,2.6-5.2c0-1.9-0.6-3.4-1.9-4.6c-1.3-1.2-2.9-1.8-4.9-1.8c-2,0-3.6,0.6-4.9,1.9
			c-1.3,1.2-2.2,3.1-2.5,5.6l-5.1-0.9c0.6-3.4,2-6,4.2-7.9c2.2-1.9,4.9-2.8,8.2-2.8c2.2,0,4.3,0.5,6.2,1.4c1.9,1,3.3,2.3,4.3,3.9
			c1,1.7,1.5,3.4,1.5,5.3c0,1.8-0.5,3.4-1.4,4.9c-1,1.5-2.4,2.6-4.2,3.5c2.4,0.6,4.3,1.7,5.7,3.5c1.3,1.8,2,4,2,6.6
			c0,3.6-1.3,6.6-3.9,9.2c-2.6,2.5-5.9,3.8-10,3.8c-3.6,0-6.6-1.1-9-3.2C72.1,78.2,70.8,75.4,70.4,72z"/>
	</g>
	<g class="st5">
		<path class="st9" d="M132.5,131.4v-30h11.2c2.3,0,4.1,0.3,5.5,0.9c1.4,0.6,2.5,1.5,3.3,2.8c0.8,1.3,1.2,2.6,1.2,4
			c0,1.3-0.3,2.5-1,3.6c-0.7,1.1-1.7,2-3.1,2.7c1.8,0.5,3.2,1.4,4.2,2.7c1,1.3,1.5,2.8,1.5,4.5c0,1.4-0.3,2.7-0.9,3.9
			c-0.6,1.2-1.3,2.1-2.2,2.8c-0.9,0.7-2,1.1-3.3,1.5c-1.3,0.3-2.9,0.5-4.8,0.5H132.5z M136.4,114h6.5c1.8,0,3-0.1,3.8-0.3
			c1-0.3,1.8-0.8,2.3-1.5c0.5-0.7,0.8-1.6,0.8-2.6c0-1-0.2-1.9-0.7-2.6c-0.5-0.8-1.2-1.3-2-1.6c-0.9-0.3-2.4-0.4-4.6-0.4h-6V114z
			 M136.4,127.8h7.5c1.3,0,2.2,0,2.7-0.1c0.9-0.2,1.7-0.4,2.3-0.8c0.6-0.4,1.1-0.9,1.5-1.7c0.4-0.7,0.6-1.6,0.6-2.5
			c0-1.1-0.3-2.1-0.9-2.9c-0.6-0.8-1.4-1.4-2.4-1.7c-1-0.3-2.5-0.5-4.4-0.5h-6.9V127.8z"/>
		<path class="st9" d="M178.2,108.7l-3.7,0.3c-0.3-1.4-0.8-2.5-1.4-3.1c-1-1-2.2-1.6-3.7-1.6c-1.2,0-2.2,0.3-3.1,1
			c-1.2,0.8-2.1,2.1-2.7,3.7c-0.7,1.6-1,3.9-1,6.9c0.9-1.3,2-2.4,3.3-3c1.3-0.7,2.6-1,4-1c2.5,0,4.5,0.9,6.3,2.7
			c1.7,1.8,2.6,4.1,2.6,7c0,1.9-0.4,3.6-1.2,5.2c-0.8,1.6-1.9,2.9-3.3,3.7c-1.4,0.9-3,1.3-4.8,1.3c-3.1,0-5.6-1.1-7.5-3.4
			c-1.9-2.3-2.9-6-2.9-11.2c0-5.8,1.1-10,3.2-12.6c1.9-2.3,4.4-3.4,7.5-3.4c2.4,0,4.3,0.7,5.8,2C177,104.6,177.9,106.4,178.2,108.7z
			 M163.1,121.6c0,1.3,0.3,2.5,0.8,3.6c0.5,1.2,1.3,2,2.3,2.6c1,0.6,2,0.9,3,0.9c1.6,0,2.9-0.6,4-1.9c1.1-1.3,1.7-3,1.7-5.1
			c0-2.1-0.6-3.7-1.7-4.9c-1.1-1.2-2.5-1.8-4.2-1.8c-1.7,0-3.1,0.6-4.2,1.8C163.7,118.1,163.1,119.7,163.1,121.6z"/>
	</g>
	<g class="st5">
		<path class="st9" d="M79.8,159.2l3,0.8c-0.6,2.4-1.7,4.3-3.4,5.6c-1.6,1.3-3.6,1.9-5.9,1.9c-2.4,0-4.4-0.5-5.9-1.5
			c-1.5-1-2.7-2.4-3.5-4.3c-0.8-1.9-1.2-3.9-1.2-6c0-2.3,0.4-4.4,1.3-6.1c0.9-1.7,2.2-3.1,3.8-4c1.7-0.9,3.5-1.4,5.5-1.4
			c2.2,0,4.1,0.6,5.7,1.7c1.5,1.1,2.6,2.8,3.2,4.8l-2.9,0.7c-0.5-1.6-1.3-2.8-2.3-3.6c-1-0.7-2.2-1.1-3.7-1.1
			c-1.7,0-3.2,0.4-4.3,1.2s-2,1.9-2.4,3.3c-0.5,1.4-0.7,2.8-0.7,4.3c0,1.9,0.3,3.6,0.8,5s1.4,2.5,2.6,3.2s2.4,1.1,3.8,1.1
			c1.7,0,3.1-0.5,4.2-1.4C78.6,162.5,79.4,161,79.8,159.2z"/>
		<path class="st9" d="M96.7,165c-1,0.9-2,1.5-3,1.8c-0.9,0.4-2,0.5-3,0.5c-1.8,0-3.2-0.4-4.1-1.3c-1-0.9-1.4-2-1.4-3.4
			c0-0.8,0.2-1.5,0.5-2.2s0.8-1.2,1.4-1.6c0.6-0.4,1.2-0.7,2-0.9c0.5-0.1,1.4-0.3,2.5-0.4c2.2-0.3,3.9-0.6,4.9-1c0-0.4,0-0.6,0-0.7
			c0-1.1-0.3-1.9-0.8-2.4c-0.7-0.6-1.8-0.9-3.1-0.9c-1.3,0-2.3,0.2-2.9,0.7c-0.6,0.5-1.1,1.3-1.4,2.4l-2.7-0.4
			c0.2-1.2,0.6-2.1,1.2-2.8c0.6-0.7,1.4-1.3,2.4-1.6c1.1-0.4,2.3-0.6,3.7-0.6c1.4,0,2.5,0.2,3.4,0.5c0.9,0.3,1.5,0.7,1.9,1.2
			c0.4,0.5,0.7,1.1,0.9,1.9c0.1,0.5,0.1,1.3,0.1,2.5v3.7c0,2.6,0.1,4.2,0.2,4.9c0.1,0.7,0.4,1.3,0.7,2h-2.9
			C97,166.5,96.8,165.8,96.7,165z M96.5,158.9c-1,0.4-2.5,0.8-4.5,1c-1.1,0.2-1.9,0.3-2.4,0.6c-0.5,0.2-0.8,0.5-1.1,0.9
			c-0.3,0.4-0.4,0.8-0.4,1.3c0,0.7,0.3,1.3,0.8,1.8c0.6,0.5,1.4,0.7,2.4,0.7c1.1,0,2-0.2,2.8-0.7c0.8-0.5,1.4-1.1,1.8-1.9
			c0.3-0.6,0.4-1.5,0.4-2.8V158.9z"/>
	</g>
</g>
<g class="st0">
	<path class="st5" d="M193.6,74.4c-0.4,2.5-0.7,5.1-1.2,7.6c-2.1,10.3-6.8,19.1-13.9,26.5c-25.4,26.8-50.8,53.6-76.1,80.4
		c-1.6,1.7-3.1,1.7-4.7,0c-25.6-27-51.2-54-76.8-81C13,99.4,8.2,89.2,6.6,77.4C2.8,49.7,20.2,23.5,46,17.9
		c18-3.9,33.6,1.3,46.8,14.8c2.3,2.4,4.6,4.8,6.9,7.2c0.1,0.1,0.2,0.1,0.4,0.1c2.1-2.2,4.1-4.6,6.4-6.7c2.6-2.5,5.3-5.1,8.2-7.3
		c6.7-4.9,14.2-7.9,22.3-8.8c16-1.8,29.9,3.1,41.5,14.9c7.8,7.9,12.6,17.6,14.4,28.9c0.3,1.6,0.5,3.3,0.8,5
		C193.6,68.9,193.6,71.6,193.6,74.4z M99.9,183.9c0.6-0.7,0.8-1.1,1.2-1.5c15-15.8,29.9-31.6,44.9-47.4c10-10.6,20.1-21.1,30-31.8
		C188.5,89.8,192,69,185,51.8c-8-19.6-26.7-31.1-46.8-28.9c-9.2,1-17.5,4.6-24.5,11.1c-3.9,3.6-7.5,7.6-11.2,11.5c-2,2-3,2.1-4.9,0
		c-2.9-3-5.7-6.1-8.7-9.1C77.5,24.8,64.1,20.2,48.5,23c-19.9,3.5-35.8,22.4-37,43.6c-0.8,14.6,3.5,27.4,13.4,37.8
		c24.6,26.1,49.3,52,73.9,78.1C99.2,182.8,99.4,183.2,99.9,183.9z"/>
</g>
<g class="st0">
	<g class="st5">
		<path class="st7" d="M102.5,120.5c-0.3,0-0.7-0.1-1-0.2L9,73c-0.8-0.4-1.2-1.2-1.2-2c0-0.8,0.6-1.6,1.4-1.9l92.5-37.4
			c0.6-0.2,1.2-0.2,1.8,0.1L192,75.1c0.7,0.4,1.2,1.1,1.2,2c0,0.8-0.5,1.6-1.2,1.9l-88.6,41.3C103.1,120.5,102.8,120.5,102.5,120.5z
			 M15.2,71.3l87.4,44.6l83.5-39l-83.7-40.9L15.2,71.3z"/>
	</g>
	<g class="st5">
		<path class="st7" d="M24.7,135.3C24.7,135.3,24.7,135.3,24.7,135.3c-1.2,0-2.2-1-2.2-2.2l1.1-53.4c0-1.1,0.8-2,1.9-2.1l77.7-9.6
			c1.2-0.1,2.3,0.7,2.4,1.9c0.1,1.2-0.7,2.3-1.9,2.4l-75.8,9.4l-1.1,51.5C26.8,134.4,25.9,135.3,24.7,135.3z"/>
	</g>
	<g class="st5">
		<path class="st7" d="M101.5,160.9c-40.1,0-52.5-19.9-53.1-20.7c-0.2-0.3-0.3-0.7-0.3-1.1V93.8c0-1.2,1-2.2,2.2-2.2
			c1.2,0,2.2,1,2.2,2.2v44.6c2.1,2.8,14.8,18.2,49,18.2c34.4,0,47.1-17.1,49-20.1l-0.2-40.9c0-1.2,1-2.2,2.2-2.2c0,0,0,0,0,0
			c1.2,0,2.2,1,2.2,2.2l0.2,41.5c0,0.4-0.1,0.7-0.3,1C154.1,139,141.7,160.9,101.5,160.9z"/>
	</g>
	<g class="st5">
		<path class="st7" d="M101.5,145.2c-36.1,0-52.3-21.6-52.9-22.6c-0.7-1-0.5-2.3,0.5-3c1-0.7,2.3-0.5,3,0.5
			c0.2,0.3,15.7,20.8,49.4,20.8c32,0,49.3-22.5,49.5-22.8c0.7-1,2.1-1.2,3-0.4c1,0.7,1.2,2.1,0.4,3
			C153.7,121.7,135.7,145.2,101.5,145.2z"/>
	</g>
	<g class="st5">
		<path class="st7" d="M24.9,153c-6.1,0-11-4.9-11-11c0-6.1,4.9-11,11-11s11,4.9,11,11C35.9,148,30.9,153,24.9,153z M24.9,135.2
			c-3.7,0-6.7,3-6.7,6.7s3,6.7,6.7,6.7s6.7-3,6.7-6.7S28.6,135.2,24.9,135.2z"/>
	</g>
	<g class="st5">
		<path class="st7" d="M35.7,170.7H14c-0.7,0-1.3-0.3-1.8-0.9c-0.4-0.6-0.5-1.3-0.3-2l5.9-17.7c0.4-1.1,1.6-1.8,2.7-1.4
			c1.1,0.4,1.7,1.6,1.4,2.7l-5,14.9h15.6l-5-14.9c-0.4-1.1,0.2-2.4,1.4-2.7c1.1-0.4,2.4,0.2,2.7,1.4l5.9,17.7c0.2,0.7,0.1,1.4-0.3,2
			C37,170.3,36.4,170.7,35.7,170.7z"/>
	</g>
</g>
<g class="st0">
	<g class="st5">
		<path class="st7" d="M99.9,194.4c-0.3,0-0.6-0.1-0.9-0.2c-1.1-0.5-1.6-1.8-1.1-3l11.4-25.2c0.3-0.6,0.8-1,1.4-1.2
			c0,0,3.9-1.2,10.9-5.5c5.5-3.4,20.2-22,27.3-30.9c2-2.5,3.5-4.4,4.2-5.3c0.7-0.8,1.9-2,3.7-3.7c5.7-5.5,19.1-18.5,19-25
			c0-0.8-0.3-1.4-0.8-1.9c-3.1-2.8-12.5,5.8-19.5,12.1c-7,6.4-13.7,12.5-18.8,13c-2.9,0.3-5.9-0.8-8.8-3.4
			c-7.9-7.1-13.7-23.4-13.7-29.1c0-2.1,1.1-7.3,3.3-17.1c2.9-12.7,10.4-46.3,6.8-49.9c-3.6,1.3-10.7,21.2-15,33.1
			c-7.6,20.9-10.6,28.2-14.6,28.2c-0.9,0-1.7-0.4-2.3-1c-2.2-2.3-2-8.1-1.1-24.3c0.9-15,2.4-42.9-4.6-43.9c-4.1,3-5.7,36.9-6.4,51.4
			c-0.9,19.8-1.1,20.6-3.3,21.1c-2.9,0.7-3.5-1.2-8.5-19.4C65.2,51.7,58.6,27.6,55,24.6c-2.8,2.2-0.3,17.5,0.9,25
			c0.6,3.8,1.2,7.4,1.5,10.2c0.2,2.5,0.8,5.5,1.4,8.6c2.2,11.6,4.9,25.9-5.9,29.2c-3.2,1-6.4-3-15.8-15.4
			c-4.8-6.4-13.7-18.2-16.8-19c-0.8,4.5,11.2,26.5,23,44.2c1.9,2.9,3.3,8.9,4.9,15.9c1.5,6.7,3.3,14.2,5.5,18.6
			c1.6,3.2,3.3,6.8,4.9,10.1c2.7,5.8,5.6,11.8,6.9,13.5c2.2,2.7-0.3,9.6-7.3,20.3c-0.7,1-2.1,1.3-3.1,0.6c-1-0.7-1.3-2.1-0.6-3.1
			c4.2-6.4,7.6-13.5,7.4-15.3c-1.7-2.2-4.3-7.8-7.3-14.2c-1.6-3.4-3.2-6.9-4.8-10.1c-2.5-4.9-4.2-12.4-5.9-19.6
			c-1.4-6-2.8-12.3-4.3-14.4c-2.6-4-25.7-39-23.5-48c0.4-1.5,1.3-2.3,2-2.7c5-2.7,11.9,6,22.7,20.4c4,5.3,9.3,12.4,11.3,13.6
			c5.9-2.2,4.6-11.7,2.3-23.9c-0.6-3.3-1.2-6.4-1.5-9c-0.3-2.7-0.8-6.2-1.5-9.9C49.3,36.6,47,22.5,54,20.2c0.7-0.2,1.7-0.3,2.9,0.3
			c4.4,2.4,8.6,15.3,15.9,41.7c0.8,3.1,1.7,6.3,2.6,9.2c0.2-3,0.3-6.5,0.5-9.9c1.3-28.1,2.7-50,8-54.6c1.2-1,2.3-1.2,3.1-1.1
			C98.5,6.6,97.1,32,95.8,54.4c-0.4,7.1-0.9,15.6-0.4,19.4c2.5-4,6.6-15.4,9.8-24c9.6-26.5,14.5-37.9,20.6-35.8
			c6.8,2.3,4.2,19.6-3.8,55.2c-1.7,7.4-3.2,14.4-3.2,16.1c0,4.9,5.7,19.9,12.3,25.8c1.9,1.7,3.7,2.5,5.3,2.3
			c3.7-0.4,10.4-6.5,16.3-11.9c10-9.1,19.5-17.8,25.5-12.1c1.4,1.3,2.2,3.1,2.2,5.2c0.1,7.8-10.5,18.7-20.3,28.2
			c-1.6,1.5-2.9,2.8-3.4,3.4c-0.7,0.8-2.2,2.7-4.1,5.1c-7.8,9.8-22.2,28.1-28.4,31.9c-5.5,3.4-9.3,5-11,5.6l-11,24.3
			C101.5,193.9,100.7,194.4,99.9,194.4z"/>
	</g>
	<g class="st5">
		<g>
			<path class="st7" d="M83.3,112.2c4.9,0,4.9-7.6,0-7.6C78.4,104.5,78.4,112.2,83.3,112.2L83.3,112.2z"/>
		</g>
	</g>
	<g class="st5">
		<g>
			<path class="st7" d="M95,131.3c4.9,0,4.9-7.6,0-7.6C90.1,123.7,90.1,131.3,95,131.3L95,131.3z"/>
		</g>
	</g>
	<g class="st5">
		<g>
			<path class="st7" d="M101,115.3c4.9,0,4.9-7.6,0-7.6C96.1,107.7,96.1,115.3,101,115.3L101,115.3z"/>
		</g>
	</g>
	<g class="st5">
		<g>
			<path class="st7" d="M76.1,128.5c4.9,0,4.9-7.6,0-7.6C71.2,120.8,71.2,128.5,76.1,128.5L76.1,128.5z"/>
		</g>
	</g>
	<g class="st5">
		<g>
			<path class="st7" d="M61.6,121c4.9,0,4.9-7.6,0-7.6C56.7,113.4,56.6,121,61.6,121L61.6,121z"/>
		</g>
	</g>
	<g class="st5">
		<g>
			<path class="st7" d="M84.4,147.3c4.9,0,4.9-7.6,0-7.6C79.5,139.7,79.5,147.3,84.4,147.3L84.4,147.3z"/>
		</g>
	</g>
	<g class="st5">
		<g>
			<path class="st7" d="M113.6,139.9c4.9,0,4.9-7.6,0-7.6C108.7,132.3,108.7,139.9,113.6,139.9L113.6,139.9z"/>
		</g>
	</g>
</g>
<g class="st0">
	<g class="st5">
		<g>
			<path class="st7" d="M133.9,143.5c-0.5,0-1-0.2-1.4-0.5c-9.2-7.6-34.9-27.6-43.1-28.5c-4.7-0.5-11.6,4.5-18.2,9.3
				c-6.8,5-13.3,9.7-19.1,9.9c-11.6,0.4-24.3-13.6-24.8-14.2c-0.8-0.9-0.7-2.4,0.2-3.2c0.9-0.8,2.4-0.7,3.2,0.2
				c0.1,0.1,11.8,13,21.3,12.7c4.4-0.2,10.6-4.7,16.6-9.1c7.3-5.3,14.8-10.8,21.3-10.1c11.1,1.2,42,26.6,45.5,29.5
				c1,0.8,1.1,2.2,0.3,3.2C135.1,143.2,134.5,143.5,133.9,143.5z"/>
		</g>
		<g>
			<path class="st7" d="M37,186.3c-10.5,0-17.7-0.7-20.7-3.2c-5.6-4.5-5.6-7.8-5.2-10.8c0-0.3,0.1-0.7,0.1-1c0-0.8,0.3-1.7,0.9-3.2
				c0.7-2,1.8-5.1,2.4-8.6c0.4-2.5,0.3-4.4,0.3-6.5c-0.1-3.1-0.2-6.6,1.1-12.1c2.2-9.5,9.5-22.7,9.8-23.2c0.6-1.1,2-1.5,3.1-0.9
				c1.1,0.6,1.5,2,0.9,3.1c-0.1,0.1-7.3,13.1-9.4,22.1c-1.2,5-1.1,8-1,11c0.1,2.2,0.1,4.4-0.3,7.3c-0.6,4-1.8,7.3-2.6,9.5
				c-0.3,0.7-0.6,1.6-0.6,1.9c0,0.4-0.1,0.9-0.1,1.5c-0.3,1.7-0.5,3.3,3.5,6.6c3.6,2.9,23.2,2.2,36.3,1.7c7.1-0.3,13.9-0.5,18.6-0.3
				c20,0.7,46.5,1,60.9-0.4c16.6-1.6,42.3-7.8,45-9.6c0.6-0.4,1.5-2.4,1.5-6.2c0-3.5-0.7-6.5-1.4-7.6c-2.6-2.7-32.5-11.6-42.2-12.8
				c-8.1-1.1-19.5-1-27.3,2.2c-7.1,2.9-12.8,10.5-12.9,10.6c-0.7,1-2.2,1.2-3.2,0.5c-1-0.7-1.2-2.2-0.5-3.2
				c0.3-0.4,6.5-8.6,14.8-12.1c8.5-3.5,20.9-3.6,29.6-2.5c6.7,0.9,42.1,9.9,45.3,14.8c1.7,2.5,2.2,6.9,2.2,10.2
				c0,2.8-0.5,7.9-3.5,9.9c-4.2,2.8-31.9,8.9-47.1,10.3c-19,1.8-54.6,0.6-61.5,0.4c-4.6-0.2-11.3,0.1-18.3,0.3
				C48.6,186.1,42.4,186.3,37,186.3z"/>
		</g>
		<g>
			<path class="st7" d="M99.9,118.5c-0.3,0-0.7-0.1-1-0.2c-0.6-0.3-1.1-0.9-3-2.9c-2.6-2.9-9.5-10.5-12.7-10.5
				c-4.4,0-5.6,3.9-5.6,4.5c0.1,0.5,1.5,2,2.8,3c1,0.8,1.1,2.2,0.4,3.2c-0.8,1-2.2,1.1-3.2,0.4c-1.4-1.1-4.5-3.8-4.5-6.6
				c0-3.2,3.4-9,10.1-9c4.8,0,10.5,5.9,16,12c0.7,0.8,1.6,1.7,1.9,2c1,0.6,1.3,1.9,0.8,2.9C101.5,118.1,100.7,118.5,99.9,118.5z"/>
		</g>
		<g>
			<path class="st7" d="M47.5,147.9c-0.4,0-0.8,0-1.3,0c-14.8-0.9-24.9-16.3-25.4-17c-0.7-1-0.4-2.4,0.7-3.1c1-0.7,2.4-0.4,3.1,0.7
				c0.1,0.1,9.4,14.2,21.9,14.9c18.4,1.1,50.6-27,51-27.3c0.9-0.8,2.4-0.7,3.2,0.2c0.8,0.9,0.7,2.4-0.2,3.2
				C99.1,120.7,67.8,147.9,47.5,147.9z"/>
		</g>
		<g>
			<path class="st7" d="M121.6,171.9c-0.3,0-0.6-0.1-0.8-0.2c-1-0.4-1.6-1.5-1.4-2.5c-0.1-0.4-1-2.5-7.4-5.6
				c-15-7.3-61.8-15.5-65.4-15.7c-0.8,0.1-1.6-0.3-2.1-1c-0.7-1-0.4-2.4,0.6-3.1c2.9-1.9,56,9.5,68.8,15.8
				c10.6,5.2,10.4,9.4,9.7,10.9C123.3,171.3,122.5,171.9,121.6,171.9z M119.5,168.8L119.5,168.8L119.5,168.8z"/>
		</g>
		<g>
			<path class="st7" d="M134.8,174.7c-3.2,0-6.2-0.2-9.1-0.5c-12.3-1.6-44.7-6.6-58.8-9c-13.9-2.4-46.7-3.2-47.1-3.2
				c-1.2,0-2.2-1.1-2.2-2.3c0-1.2,1.1-2.3,2.3-2.2c1.4,0,33.5,0.8,47.7,3.3c14.1,2.5,46.4,7.4,58.6,9c21.7,2.8,55-7.1,55.3-7.2
				c1.2-0.4,2.4,0.3,2.8,1.5c0.4,1.2-0.3,2.4-1.5,2.8C181.7,167.2,156.3,174.7,134.8,174.7z"/>
		</g>
		<g>
			<g>
				<path class="st7" d="M86.8,121.7c3.3,0,3.3-5.1,0-5.1C83.5,116.6,83.5,121.7,86.8,121.7L86.8,121.7z"/>
			</g>
		</g>
		<g>
			<g>
				<path class="st7" d="M101.6,129.6c3.3,0,3.3-5.1,0-5.1C98.3,124.5,98.3,129.6,101.6,129.6L101.6,129.6z"/>
			</g>
		</g>
		<g>
			<g>
				<path class="st7" d="M108.9,134.6c3.3,0,3.3-5.1,0-5.1C105.6,129.4,105.6,134.6,108.9,134.6L108.9,134.6z"/>
			</g>
		</g>
		<g>
			<g>
				<path class="st7" d="M115.4,138.4c3.3,0,3.3-5.1,0-5.1C112.1,133.3,112.1,138.4,115.4,138.4L115.4,138.4z"/>
			</g>
		</g>
	</g>
	<g class="st5">
		<g>
			<path class="st7" d="M149.2,80.3c-0.8,0-1.6-0.5-2-1.3c-5.2-10.8-20.2-39.6-27.3-43.9c-4.1-2.5-12.4-0.8-20.4,0.9
				c-8.3,1.7-16.1,3.3-21.5,1c-10.8-4.5-16.4-22.5-16.6-23.2c-0.4-1.2,0.3-2.4,1.5-2.8c1.2-0.4,2.4,0.3,2.8,1.5
				c0.1,0.2,5.2,16.7,14,20.4c4.1,1.7,11.6,0.2,18.9-1.3c8.8-1.8,18-3.7,23.6-0.3C131.7,37,149.2,73,151.2,77c0.5,1.1,0.1,2.5-1.1,3
				C149.8,80.2,149.5,80.3,149.2,80.3z"/>
		</g>
		<g>
			<path class="st7" d="M178.3,128.9c-7.2,0-32.5-5.6-46-10.3c-18-6.3-49.9-22.2-56.1-25.3c-4.1-2.1-10.3-4.6-16.8-7.3
				c-19.2-8-31.9-13.6-34.5-18.9c-3.2-6.4-1.8-9.4-0.2-11.9c0.2-0.3,0.4-0.6,0.5-0.8c0.3-0.7,1-1.4,2.2-2.6c1.5-1.5,3.8-3.9,5.8-6.8
				c1.4-2.1,2.1-3.9,2.9-5.8c1.2-2.8,2.6-6,6.1-10.5c6-7.7,18.1-16.6,18.6-17c1-0.7,2.4-0.5,3.1,0.5c0.7,1,0.5,2.4-0.5,3.1
				c-0.1,0.1-12.1,8.9-17.7,16.2c-3.1,4-4.3,6.8-5.5,9.5c-0.9,2-1.7,4.1-3.3,6.5c-2.2,3.3-4.7,5.8-6.3,7.5c-0.5,0.5-1.2,1.2-1.3,1.4
				c-0.1,0.3-0.4,0.8-0.7,1.3c-0.9,1.5-1.8,2.8,0.5,7.5c2,4.1,20.2,11.7,32.2,16.7c6.6,2.7,12.8,5.3,17.1,7.5
				c17.9,9,41.8,20.3,55.5,25.1c15.8,5.5,41.7,10.5,44.9,10c0.7-0.1,2.3-1.6,4-5c1.5-3.2,2.1-6.2,1.9-7.5
				c-1.3-3.6-24.7-24.1-33-29.2c-6.6-4.1-17.3-9.1-25.7-9.4c-7.6-0.3-16,4.2-16.1,4.3c-1.1,0.6-2.5,0.2-3.1-0.9
				c-0.6-1.1-0.2-2.5,0.9-3.1c0.4-0.2,9.5-5.1,18.4-4.8c9.2,0.3,20.5,5.4,27.9,10.1c5.8,3.6,34.1,26.6,35,32.4
				c0.5,2.9-0.9,7.2-2.3,10.1c-1.2,2.6-3.8,6.9-7.3,7.5C179.1,128.8,178.7,128.9,178.3,128.9z"/>
		</g>
		<g>
			<path class="st7" d="M128.7,43.4c-0.7,0-1.3-0.3-1.8-0.8c-0.4-0.6-0.7-1.3-1.5-3.9c-1.2-3.7-4.3-13.5-7.2-14.8
				c-4-1.8-6.7,1.2-7,1.7c-0.1,0.5,0.5,2.4,1.3,3.9c0.6,1.1,0.1,2.5-1,3c-1.1,0.6-2.5,0.1-3-1c-0.8-1.5-2.5-5.4-1.4-7.8
				c1.3-2.9,6.8-6.7,12.9-3.9c4.3,2,7.1,9.8,9.6,17.6c0.3,1.1,0.7,2.2,0.9,2.6c0.6,1,0.4,2.2-0.5,3
				C129.7,43.3,129.2,43.4,128.7,43.4z"/>
		</g>
		<g>
			<path class="st7" d="M85.8,51.2c-7.3,0-14.1-1-19.1-3.6c-13.1-6.9-15.9-25.2-16-26c-0.2-1.2,0.7-2.4,1.9-2.6
				c1.2-0.2,2.4,0.7,2.6,1.9c0,0.2,2.6,16.8,13.6,22.7c16.3,8.7,57.3-3.4,57.7-3.5c1.2-0.4,2.4,0.3,2.8,1.5c0.4,1.2-0.3,2.4-1.5,2.8
				C126.6,44.7,104.7,51.2,85.8,51.2z"/>
		</g>
		<g>
			<path class="st7" d="M126.2,101c-0.6,0-1.2-0.2-1.6-0.7c-0.8-0.8-0.8-2-0.2-2.9c0-0.4,0.1-2.7-4.4-8.2
				C109.3,76.3,70.2,49.4,67,47.7c-0.7-0.3-1.3-0.9-1.5-1.8c-0.2-1.2,0.6-2.4,1.9-2.6c3.4-0.5,47,32,56,43c7.5,9.1,5.5,12.8,4.3,14
				C127.3,100.8,126.7,101,126.2,101z M124.6,97.1C124.6,97.1,124.6,97.1,124.6,97.1C124.6,97.1,124.6,97.1,124.6,97.1z M124.6,97.1
				C124.6,97.1,124.6,97.1,124.6,97.1C124.6,97.1,124.6,97.1,124.6,97.1z M124.6,97.1C124.6,97.1,124.6,97.1,124.6,97.1
				C124.6,97.1,124.6,97.1,124.6,97.1z"/>
		</g>
		<g>
			<path class="st7" d="M183.4,121.7c-0.1,0-0.2,0-0.3,0c-1.4-0.2-35.6-5-55-17.1C117.5,98,90.1,80,78.3,71.8
				c-11.6-8-41.1-22.4-41.4-22.6c-1.1-0.5-1.6-1.9-1-3c0.5-1.1,1.9-1.6,3-1c1.2,0.6,30.2,14.7,42,22.9c11.8,8.1,39.1,26.1,49.5,32.6
				c18.6,11.6,52.9,16.4,53.3,16.5c1.2,0.2,2.1,1.3,1.9,2.5C185.5,120.9,184.5,121.7,183.4,121.7z"/>
		</g>
		<g>
			<g>
				<path class="st7" d="M115.6,40.9c3.3,0,3.3-5.1,0-5.1C112.3,35.8,112.3,40.9,115.6,40.9L115.6,40.9z"/>
			</g>
		</g>
		<g>
			<g>
				<path class="st7" d="M125.8,54.2c3.3,0,3.3-5.1,0-5.1C122.5,49.1,122.5,54.2,125.8,54.2L125.8,54.2z"/>
			</g>
		</g>
		<g>
			<g>
				<path class="st7" d="M130.3,61.8c3.3,0,3.3-5.1,0-5.1C127,56.7,127,61.8,130.3,61.8L130.3,61.8z"/>
			</g>
		</g>
		<g>
			<g>
				<path class="st7" d="M134.7,68c3.3,0,3.3-5.1,0-5.1C131.4,62.9,131.4,68,134.7,68L134.7,68z"/>
			</g>
		</g>
	</g>
</g>
<g class="st0">
	<g class="st5">
		<path class="st7" d="M54.6,112.4c-2.2,0-24.4-0.4-37.4-14.2c-6.8-7.2-9.8-16.7-9-28.3C9,59.3,13,50.9,20.1,45.3
			c13.9-11.1,34.6-8,35.4-7.8c1.4,0.2,2.4,1.6,2.2,3c-0.2,1.4-1.5,2.4-3,2.2c-0.2,0-19.3-2.9-31.4,6.8c-5.9,4.7-9.3,11.8-9.9,21
			c-0.7,10,1.8,18.2,7.6,24.3c11.8,12.6,33.4,12.5,33.7,12.5c0,0,0,0,0,0c1.4,0,2.6,1.1,2.6,2.6c0,1.4-1.1,2.6-2.6,2.6
			C54.7,112.4,54.6,112.4,54.6,112.4z"/>
	</g>
	<g class="st5">
		<path class="st7" d="M142.6,112.4c-0.7,0-1.1,0-1.2,0c-1.4-0.1-2.6-1.3-2.5-2.7c0.1-1.4,1.3-2.6,2.7-2.5c0.2,0,24,0.7,36.5-12.5
			c5.9-6.2,8.5-14.7,7.5-25.3C183,39.8,146,40.2,144.4,40.2c-1.1,0-2-0.6-2.4-1.5c-0.6-1.3-15.7-33-50.9-26.4
			c-31.9,6-35.6,46.8-35.6,47.2C55.3,61,54,62,52.6,61.9c-1.4-0.1-2.5-1.4-2.4-2.8c0-0.5,4.1-45.2,39.9-51.9
			c34.7-6.5,52.1,21,55.8,27.8c8,0.3,42.1,3.3,44.9,33.9c1.1,12.1-1.9,21.9-8.9,29.3C169.3,111.6,147.9,112.4,142.6,112.4z"/>
	</g>
	<g class="st5">
		<path class="st7" d="M36.8,187.9c-0.1,0-0.1,0-0.2,0c-1.4-0.1-2.5-1.4-2.4-2.8l6.1-75c0.1-1.4,1.4-2.5,2.8-2.4
			c1.4,0.1,2.5,1.4,2.4,2.8l-6.1,75C39.2,186.9,38.1,187.9,36.8,187.9z"/>
	</g>
	<g class="st5">
		<path class="st7" d="M103.8,196.9c-1.5,0-2.9,0-4.4,0c-43.4-0.9-62.9-8.8-63.7-9.2c-1.3-0.5-2-2.1-1.4-3.4c0.5-1.3,2.1-2,3.4-1.4
			c0.2,0.1,19.5,7.8,61.8,8.8c30.5,0.7,57.1-6,57.3-6.1c1.4-0.3,2.8,0.5,3.2,1.9c0.4,1.4-0.5,2.8-1.9,3.2
			C157.9,190.7,133.1,196.9,103.8,196.9z"/>
	</g>
	<g class="st5">
		<path class="st7" d="M104.6,177.2c-1.4,0-2.9,0-4.3,0c-42.7-0.9-61.8-8.8-62.6-9.2c-1.3-0.6-1.9-2.1-1.4-3.4
			c0.6-1.3,2.1-1.9,3.4-1.4c0.2,0.1,19.2,7.8,60.7,8.8c29.9,0.7,56.1-6,56.3-6.1c1.4-0.4,2.8,0.5,3.2,1.9c0.4,1.4-0.5,2.8-1.9,3.2
			C157.8,171,133.4,177.2,104.6,177.2z"/>
	</g>
	<g class="st5">
		<path class="st7" d="M157.5,190.7c-1.4,0-2.6-1.1-2.6-2.6l-0.9-79.7c0-1.4,1.1-2.6,2.6-2.6c1.4,0.1,2.6,1.1,2.6,2.6l0.9,79.7
			C160.2,189.5,159,190.7,157.5,190.7C157.6,190.7,157.5,190.7,157.5,190.7z"/>
	</g>
	<g class="st5">
		<path class="st7" d="M64.8,160.9c-0.1,0-0.1,0-0.2,0c-1.4-0.1-2.5-1.3-2.4-2.8l2.7-37.6c0.1-1.4,1.3-2.5,2.8-2.4
			c1.4,0.1,2.5,1.3,2.4,2.8l-2.7,37.6C67.3,159.9,66.2,160.9,64.8,160.9z"/>
	</g>
	<g class="st5">
		<path class="st7" d="M97,161.6C96.9,161.6,96.9,161.6,97,161.6c-1.5-0.1-2.6-1.3-2.6-2.7l1.3-37.6c0.1-1.4,1.2-2.5,2.7-2.5
			c1.4,0,2.6,1.3,2.5,2.7l-1.3,37.6C99.5,160.5,98.3,161.6,97,161.6z"/>
	</g>
	<g class="st5">
		<path class="st7" d="M129.1,160.3C129.1,160.3,129,160.3,129.1,160.3c-1.5,0-2.6-1.2-2.6-2.6l0.2-36.5c0-1.4,1.2-2.6,2.6-2.6
			c0,0,0,0,0,0c1.4,0,2.6,1.2,2.6,2.6l-0.2,36.5C131.6,159.1,130.5,160.3,129.1,160.3z"/>
	</g>
</g>
<g class="st0">
	<g class="st5">
		<path class="st7" d="M83.2,150.2c-0.7,0-1.4-0.4-1.9-1c-0.4-0.5-8.7-13.1-17.9-36.5C57.6,98,50.6,66.1,47.2,50.1
			C43.7,63.5,37.2,88,33.1,100.3c-5.7,17.6-20.7,46.6-21.3,47.8c-0.6,1.1-1.9,1.5-3,1c-1.1-0.6-1.5-1.9-1-3
			c0.2-0.3,15.4-29.9,21.1-47.1C34.5,81.6,45.2,40,45.3,39.6c0.3-1,1.2-1.7,2.2-1.7c1.1,0,1.9,0.8,2.1,1.8
			c0.1,0.5,10.3,52,17.9,71.4c9,22.9,17.3,35.5,17.4,35.6c0.7,1,0.4,2.4-0.6,3.1C84,150.1,83.6,150.2,83.2,150.2z"/>
	</g>
	<g class="st5">
		<path class="st7" d="M192.9,150.2h-140c-1.1,0-2-0.8-2.2-1.9L45.4,119l-5.8,28.8c-0.2,1.1-1.1,1.8-2.2,1.8H10.9
			c-1.2,0-2.3-1-2.3-2.3s1-2.3,2.3-2.3h24.6l7.8-38.7c0.2-1.1,1.1-1.8,2.2-1.8c0,0,0,0,0,0c1.1,0,2,0.8,2.2,1.9l7,39.2h134.1
			c-3.4-5.8-10.2-18.5-16.9-37.9c-6.3-18.3-13.1-54.7-15-64.7c-6.5,2-25.2,7-52.3,7c-21.5,0-54.9-6.4-56.7-7
			c-1.2-0.4-1.8-1.7-1.4-2.8c0.4-1.2,1.6-1.8,2.8-1.4c1.7,0.5,34.1,6.8,55.3,6.8c32.6,0,53.1-7.5,53.3-7.5c0.6-0.2,1.3-0.2,1.9,0.2
			c0.6,0.3,1,0.9,1.1,1.6c0.1,0.5,8.1,46,15.3,66.6c9,26,18.4,40.2,18.5,40.3c0.5,0.7,0.5,1.6,0.1,2.3
			C194.5,149.8,193.7,150.2,192.9,150.2z"/>
	</g>
	<g class="st5">
		<path class="st7" d="M102.7,100.7c-1,0-1.9-0.7-2.2-1.6l-7.7-27.2c-0.2-0.7-0.1-1.4,0.4-2c0.4-0.6,1.1-0.9,1.8-0.9l34.9-0.4
			c1.1,0,2,0.7,2.2,1.7l6.5,27.2c0.2,0.7,0,1.4-0.4,1.9c-0.4,0.5-1.1,0.9-1.7,0.9L102.7,100.7C102.7,100.7,102.7,100.7,102.7,100.7z
			 M98,73.5l6.4,22.8l29.2-0.3l-5.4-22.7L98,73.5z"/>
	</g>
</g>
<g>
	<g>
		<path class="st7" d="M46.3,168.5c-0.1,0-0.1,0-0.2,0c-18.6-0.1-23.9-15.5-24.1-23.6l-1-94.5c0-1.7,1.3-3.1,3-3.1c0,0,0,0,0,0
			c1.7,0,3,1.3,3.1,3l1,94.5c0,0.7,0.7,17.5,18,17.6c5.7,0.1,9.9-1.7,12.9-5.1c4.2-4.8,5.3-12,5.5-17.2l-5.6,5.4
			c-1.2,1.2-3.2,1.1-4.3-0.1c-1.2-1.2-1.1-3.2,0.1-4.3l10.5-10.1c0.8-0.8,2-1.1,3.1-0.7c1.1,0.4,1.9,1.3,2,2.5
			c0.1,0.7,2.4,18.2-6.7,28.6C59.6,166,53.7,168.5,46.3,168.5z"/>
	</g>
	<g>
		<path class="st7" d="M24.7,50.6c-6.4,0-11.5-5.2-11.5-11.6s5.2-11.6,11.5-11.6S36.2,32.6,36.2,39S31,50.6,24.7,50.6z M24.7,31.9
			c-3.9,0-7,3.2-7,7.1s3.2,7.1,7,7.1s7-3.2,7-7.1S28.6,31.9,24.7,31.9z"/>
	</g>
	<g>
		<path class="st7" d="M111.1,138.3c-0.2,0-0.4,0-0.6,0c-41.9-0.6-55.4-27.9-55.9-29.1c-0.4-0.8-0.3-1.7,0.3-2.3
			c0.9-1.2,22.2-28.2,53.5-26.4c26.6,1.5,43.9,13.6,48.6,17.3l30.2-17.6c0.8-0.5,1.8-0.4,2.5,0.2c0.7,0.6,1,1.6,0.7,2.5l-8.9,26.4
			l10.9,25.9c0.4,0.9,0.1,1.9-0.6,2.5c-0.7,0.6-1.8,0.8-2.6,0.3l-30.6-17.1C153.3,124.5,131.9,138.3,111.1,138.3z M59.3,108.5
			c3,5.2,16.7,24.8,51.3,25.3c0.2,0,0.4,0,0.6,0c21.9,0,45.7-17.2,46-17.4c0.7-0.5,1.7-0.6,2.4-0.1l26.2,14.6l-8.7-20.7
			c-0.2-0.5-0.2-1.1-0.1-1.6l7.3-21.6l-26.4,15.4c-0.8,0.5-1.9,0.4-2.6-0.3C155,102,137.3,86.6,108.1,85
			C82.7,83.5,63.6,103.5,59.3,108.5z"/>
	</g>
	<g>
		<path class="st7" d="M145,92.7c-0.6,0-1.2-0.2-1.6-0.7c-0.8-0.9-0.8-2.3,0.1-3.2l5.9-5.4c-3.4-2.9-11.2-9-20-11.2
			c-9.7-2.4-16.6-2.2-18.7-2.1L95.5,84.9c-0.9,0.9-2.3,0.8-3.2,0c-0.9-0.9-0.8-2.3,0-3.2l15.8-15.4c0.4-0.3,0.8-0.6,1.3-0.6
			c0.3,0,8.4-1,21.1,2.2c12.9,3.2,23.4,13.5,23.8,14c0.4,0.4,0.7,1,0.7,1.6c0,0.6-0.3,1.2-0.7,1.6l-7.6,7.1
			C146.1,92.5,145.6,92.7,145,92.7z"/>
	</g>
	<g>
		<path class="st7" d="M110.2,147.6c-1.5,0-2.4-0.1-2.5-0.1c-0.4,0-0.8-0.2-1.2-0.5l-13.5-10.4c-1-0.8-1.2-2.2-0.4-3.1
			c0.8-1,2.2-1.2,3.1-0.4l12.9,9.9c2.1,0.1,9,0.1,19-2.1c9-2,15.9-7.3,19.2-10.3l-2.1-0.8c-1.2-0.4-1.7-1.7-1.3-2.9
			c0.4-1.2,1.7-1.7,2.9-1.3l5.4,2.1c0.7,0.3,1.2,0.8,1.4,1.5c0.2,0.7,0,1.5-0.5,2c-0.4,0.4-9.5,10.9-24,14.1
			C120,147.3,113.5,147.6,110.2,147.6z"/>
	</g>
	<g>
		<ellipse class="st7" cx="79.2" cy="104" rx="5.3" ry="5.1"/>
	</g>
</g>
</svg>
