<?xml version="1.0" encoding="utf-8"?>
<!-- Generator: Adobe Illustrator 24.1.2, SVG Export Plug-In . SVG Version: 6.00 Build 0)  -->
<svg version="1.1" id="Слой_1" xmlns="http://www.w3.org/2000/svg" xmlns:xlink="http://www.w3.org/1999/xlink" x="0px" y="0px"
	 viewBox="0 0 200 200" style="enable-background:new 0 0 200 200;" xml:space="preserve">
<style type="text/css">
	.st0{fill:#332F2E;}
	.st1{display:none;}
	.st2{display:inline;fill:#FFFFFF;}
</style>
<g>
	<path class="st0" d="M138.6,194.7c-40.8-4.5-74.4-22.6-100.6-54.5C22.6,121.4,12.6,99.6,7.8,75.7c-2.1-10.1-3.2-20.3-3-30.6
		c0.1-3.9,1.4-7.5,4.3-10.5c3.6-3.7,7.3-7.2,10.9-11c7.4-7.8,19.3-8.8,28.4-2.1c4.9,3.5,8.2,8.3,9.7,14.3C60,43.3,62.3,50.5,64,58
		c1.7,7.6-0.4,14.4-5.6,20.1c-2.2,2.4-4.7,4.7-6.9,7.1c-0.5,0.5-0.8,1.6-0.6,2.2c7.7,25.8,23.6,44.8,47.8,56.5
		c4.2,2,8.7,3.3,13.1,5.1c1,0.4,1.7,0.2,2.4-0.6c2.2-2.4,4.5-4.7,6.8-6.9c6-5.7,13.1-7.5,21-5.6c7.4,1.8,14.7,4.1,22,6
		c9.3,2.5,18.3,12.7,17.4,24.8c-0.4,4.9-2.2,9.1-5.6,12.7c-3.9,4-13.1,14-20.7,16.1C151.6,196.4,140.7,194.9,138.6,194.7z"/>
	<path class="st0" d="M194.2,99.8c-3.9,0-7.7,0-11.8,0c-0.5-23-8.3-42.9-24.4-59.1c-16-16.2-35.7-24.1-58.4-24.6c0-3.9,0-7.8,0-12
		c3.3,0.2,6.7,0.2,9.9,0.6C121.3,6,132.7,9.3,143.1,15c25.7,14,42,35.4,48.7,64c1,4.2,1.3,8.6,1.9,12.9c0.1,0.6,0.2,1,0.4,1.6
		C194.2,95.5,194.2,97.6,194.2,99.8z"/>
	<path class="st0" d="M158.5,99.7c-3.9,0-7.7,0-11.7,0c-0.3-13.2-4.8-24.5-14-33.7c-9.2-9.1-20.3-13.7-33.2-14c0-4,0-7.9,0-11.7
		C128.8,38.8,159.2,65.1,158.5,99.7z"/>
	<path class="st0" d="M123,99.7c-3.9,0-7.7,0-11.6,0c-0.9-7.1-4.7-11.2-11.8-11.9c0-4,0-7.9,0-11.7C111.5,75.3,123.6,86.5,123,99.7z
		"/>
</g>
<g class="st1">
	<path class="st2" d="M184.3,6.8c0.3,0.1,0.6,0.3,0.9,0.4c9,2.6,11.8,13,5.2,19.7c-3.7,3.8-7.6,7.3-11.4,11
		c-4.4,4.4-8.8,8.8-13.2,13.2c-16,15.8-31.9,31.7-47.9,47.5c-0.5,0.5-1.1,0.9-1.8,1.5c0.6,0.6,1,1.1,1.4,1.5
		c7.6,7.6,15.2,15.2,22.8,22.8c12.9,12.8,25.9,25.6,38.8,38.4c4.2,4.1,8.5,8.1,12.6,12.3c4.9,4.9,5.1,12.1,0.5,16.8
		c-4.7,4.7-12.3,4.7-17.2-0.2c-6-6-12-12-18-18c-17.8-17.7-35.6-35.3-53.4-53c-1.4-1.3-2.9-2.5-4.4-3.9c-0.5,0.5-1,0.9-1.4,1.3
		c-3.4,3.4-6.8,6.8-10.2,10.1c-20.5,20.4-41,40.7-61.5,61.1c-7.5,7.4-17.8,4.9-21-5.1c0-0.1-0.2-0.2-0.2-0.3c0-1.4,0-2.8,0-4.3
		c1-3.6,3.5-6.2,6.1-8.7c4.9-4.6,9.7-9.3,14.4-14c13.3-13.2,26.6-26.3,39.9-39.5c5.3-5.2,10.5-10.5,15.8-15.8c0.5-0.5,0.9-1,1.7-1.8
		c-0.6-0.5-1.2-0.8-1.7-1.2C75,92.6,68.7,86.5,62.5,80.3C48.9,66.9,35.3,53.4,21.8,40c-3.5-3.5-6.9-7-10.4-10.4
		c-2.7-2.6-5.2-5.2-6.3-8.8c0-1.4,0-2.8,0-4.3c1.4-5.1,4.6-8.3,9.7-9.7c1.3,0,2.6,0,3.9,0c2.4,1.3,5.3,2.1,7.2,4
		C47.6,32.2,69.3,53.8,91,75.4c2.3,2.3,4.6,4.6,6.9,6.9c0.4,0.4,0.9,0.9,1.4,1.3c1.5-1.3,3.1-2.5,4.4-3.9
		c17.1-16.9,34.1-33.8,51.2-50.8c5.4-5.3,10.7-10.7,16-16.1c2.5-2.6,5.1-5.1,8.7-6.1C181.2,6.8,182.8,6.8,184.3,6.8z"/>
	<path class="st2" d="M15.6,4.2c-5.1,1.4-8.3,4.6-9.7,9.7c0-3.2,0-6.5,0-9.7C9.1,4.2,12.4,4.2,15.6,4.2z"/>
</g>
<g class="st1">
	<path class="st2" d="M167.3,54.7c3.4,21.3-7,42.3-11.2,51.8c-14.6,32.9-55.1,93.2-55.1,93.2s-40-61.3-53.5-91
		c-7.3-16-14.1-31.9-12-50.8c2.3-20.1,11.5-32.8,25.7-44C74.4,3.5,89.6,0.3,106.1,1.1c19.5,0.9,34.7,9.6,47.2,24.1
		C160.7,33.8,165.6,43.9,167.3,54.7z M100.7,96.3c19.8-0.2,33.8-13.7,34.1-33.1c0.3-19.7-13-33.9-33.3-34.1
		C82.7,28.8,68.6,43,67.8,61.8C67.2,79.5,83.4,96.1,100.7,96.3z"/>
</g>
</svg>
